<svg width="119" height="119" viewBox="0 0 119 119" fill="none" xmlns="http://www.w3.org/2000/svg">
<mask id="path-1-inside-1_451_409" fill="white">
<path d="M59.0162 5C59.0162 2.23858 61.259 -0.0220211 64.0105 0.21161C76.2626 1.25193 87.9309 6.10024 97.3442 14.1399C108.029 23.266 115.108 35.9051 117.306 49.7841C119.504 63.663 116.678 77.8709 109.336 89.8521C101.994 101.833 90.6174 110.802 77.2532 115.144C63.889 119.486 49.414 118.918 36.4317 113.54C23.4494 108.163 12.8118 98.3294 6.43238 85.809C0.052928 73.2886 -1.64974 58.9028 1.63063 45.2391C4.52052 33.2019 11.1107 22.4211 20.4113 14.3778C22.5 12.5715 25.6432 13.0821 27.2663 15.3162L38.7329 31.0986C40.356 33.3326 39.8226 36.4339 37.8943 38.4105C34.2021 42.1953 31.572 46.9269 30.3234 52.1277C28.6832 58.9595 29.5346 66.1524 32.7243 72.4126C35.914 78.6728 41.2328 83.5894 47.724 86.2782C54.2151 88.9669 61.4526 89.2513 68.1347 87.0801C74.8168 84.909 80.505 80.4248 84.176 74.4342C87.8471 68.4436 89.2602 61.3396 88.1611 54.4001C87.062 47.4607 83.5228 41.1411 78.1802 36.5781C74.1132 33.1045 69.2042 30.8224 63.9925 29.9307C61.2706 29.465 59.0162 27.2695 59.0162 24.5081L59.0162 5Z"/>
</mask>
<path d="M59.0162 5C59.0162 2.23858 61.259 -0.0220211 64.0105 0.21161C76.2626 1.25193 87.9309 6.10024 97.3442 14.1399C108.029 23.266 115.108 35.9051 117.306 49.7841C119.504 63.663 116.678 77.8709 109.336 89.8521C101.994 101.833 90.6174 110.802 77.2532 115.144C63.889 119.486 49.414 118.918 36.4317 113.54C23.4494 108.163 12.8118 98.3294 6.43238 85.809C0.052928 73.2886 -1.64974 58.9028 1.63063 45.2391C4.52052 33.2019 11.1107 22.4211 20.4113 14.3778C22.5 12.5715 25.6432 13.0821 27.2663 15.3162L38.7329 31.0986C40.356 33.3326 39.8226 36.4339 37.8943 38.4105C34.2021 42.1953 31.572 46.9269 30.3234 52.1277C28.6832 58.9595 29.5346 66.1524 32.7243 72.4126C35.914 78.6728 41.2328 83.5894 47.724 86.2782C54.2151 88.9669 61.4526 89.2513 68.1347 87.0801C74.8168 84.909 80.505 80.4248 84.176 74.4342C87.8471 68.4436 89.2602 61.3396 88.1611 54.4001C87.062 47.4607 83.5228 41.1411 78.1802 36.5781C74.1132 33.1045 69.2042 30.8224 63.9925 29.9307C61.2706 29.465 59.0162 27.2695 59.0162 24.5081L59.0162 5Z" fill="url(#paint0_linear_451_409)" stroke="#F4F5FB" stroke-width="4" mask="url(#path-1-inside-1_451_409)"/>
<path opacity="0.5" d="M29.7644 10.5116C37.3691 5.8643 45.9444 3.03109 54.821 2.23308C56.9314 2.04335 58.7382 3.77161 58.7493 6.00565L58.8457 25.5135C58.8565 27.689 57.0667 29.5579 54.7228 29.9709C51.8193 30.4824 49.0049 31.4123 46.3681 32.7312C44.2395 33.7959 41.6887 33.3612 40.4012 31.6075L28.8568 15.8819C27.5347 14.0811 27.9563 11.6166 29.7644 10.5116Z" fill="#BABDE3" stroke="#F4F5FB" stroke-width="2"/>
<path d="M45.912 65.192C45.1333 65.192 44.4773 65.0427 43.944 64.744C43.4107 64.4347 42.9947 64.0347 42.696 63.544C42.3973 63.0533 42.2213 62.5253 42.168 61.96H44.072C44.1573 62.4507 44.36 62.8293 44.68 63.096C45.0107 63.3627 45.4267 63.496 45.928 63.496C46.6427 63.496 47.2187 63.1707 47.656 62.52C48.0933 61.8587 48.328 60.856 48.36 59.512C48.104 59.9493 47.7147 60.312 47.192 60.6C46.68 60.888 46.1147 61.032 45.496 61.032C44.8773 61.032 44.296 60.8827 43.752 60.584C43.208 60.2853 42.7653 59.864 42.424 59.32C42.0827 58.776 41.912 58.136 41.912 57.4C41.912 56.728 42.0773 56.104 42.408 55.528C42.7387 54.952 43.1973 54.488 43.784 54.136C44.3707 53.784 45.0587 53.608 45.848 53.608C46.6907 53.608 47.4 53.7627 47.976 54.072C48.552 54.3813 49.0107 54.7973 49.352 55.32C49.704 55.8427 49.9547 56.424 50.104 57.064C50.264 57.704 50.344 58.36 50.344 59.032C50.344 60.28 50.168 61.368 49.816 62.296C49.4747 63.2133 48.968 63.928 48.296 64.44C47.6347 64.9413 46.84 65.192 45.912 65.192ZM45.976 59.304C46.3707 59.304 46.728 59.2187 47.048 59.048C47.368 58.8667 47.6187 58.632 47.8 58.344C47.9813 58.0453 48.072 57.7147 48.072 57.352C48.072 56.776 47.8693 56.3013 47.464 55.928C47.0693 55.5547 46.568 55.368 45.96 55.368C45.3627 55.368 44.8667 55.5547 44.472 55.928C44.0773 56.2907 43.88 56.7547 43.88 57.32C43.88 57.9173 44.0773 58.3973 44.472 58.76C44.8667 59.1227 45.368 59.304 45.976 59.304ZM56.8206 65.192C55.786 65.192 54.9006 64.952 54.1646 64.472C53.4286 63.9813 52.858 63.304 52.4526 62.44C52.058 61.5653 51.8606 60.552 51.8606 59.4C51.8606 58.2587 52.058 57.2507 52.4526 56.376C52.858 55.5013 53.4286 54.824 54.1646 54.344C54.9006 53.8533 55.786 53.608 56.8206 53.608C57.8553 53.608 58.7406 53.8533 59.4766 54.344C60.2126 54.824 60.778 55.5013 61.1726 56.376C61.578 57.2507 61.7806 58.2587 61.7806 59.4C61.7806 60.552 61.578 61.5653 61.1726 62.44C60.778 63.304 60.2126 63.9813 59.4766 64.472C58.7406 64.952 57.8553 65.192 56.8206 65.192ZM56.8206 63.352C57.6633 63.352 58.3513 63 58.8846 62.296C59.418 61.592 59.6846 60.6267 59.6846 59.4C59.6846 58.1733 59.418 57.208 58.8846 56.504C58.3513 55.8 57.6633 55.448 56.8206 55.448C55.9673 55.448 55.274 55.8 54.7406 56.504C54.218 57.208 53.9566 58.1733 53.9566 59.4C53.9566 60.6267 54.218 61.592 54.7406 62.296C55.274 63 55.9673 63.352 56.8206 63.352ZM65.892 59.304C65.38 59.304 64.916 59.192 64.5 58.968C64.084 58.7333 63.7533 58.4027 63.508 57.976C63.2627 57.5493 63.14 57.0427 63.14 56.456C63.14 55.8693 63.2627 55.3627 63.508 54.936C63.7533 54.5093 64.084 54.184 64.5 53.96C64.916 53.7253 65.3853 53.608 65.908 53.608C66.42 53.608 66.8787 53.7253 67.284 53.96C67.7 54.184 68.0307 54.5093 68.276 54.936C68.5213 55.3627 68.644 55.8693 68.644 56.456C68.644 57.0427 68.5213 57.5493 68.276 57.976C68.0307 58.4027 67.7 58.7333 67.284 58.968C66.868 59.192 66.404 59.304 65.892 59.304ZM65.284 65L71.604 53.8H73.604L67.284 65H65.284ZM65.892 57.88C66.2013 57.88 66.468 57.7627 66.692 57.528C66.916 57.2827 67.028 56.9253 67.028 56.456C67.028 55.9867 66.916 55.6293 66.692 55.384C66.4787 55.1387 66.212 55.016 65.892 55.016C65.572 55.016 65.3 55.1387 65.076 55.384C64.8627 55.6293 64.756 55.9867 64.756 56.456C64.756 56.9253 64.8627 57.2827 65.076 57.528C65.3 57.7627 65.572 57.88 65.892 57.88ZM73.06 65.192C72.548 65.192 72.084 65.08 71.668 64.856C71.252 64.6213 70.9213 64.2907 70.676 63.864C70.4307 63.4373 70.308 62.9307 70.308 62.344C70.308 61.7573 70.4307 61.256 70.676 60.84C70.9213 60.4133 71.252 60.088 71.668 59.864C72.084 59.6293 72.5533 59.512 73.076 59.512C73.588 59.512 74.0467 59.6293 74.452 59.864C74.868 60.088 75.1987 60.4133 75.444 60.84C75.6893 61.256 75.812 61.7573 75.812 62.344C75.812 62.9307 75.6893 63.4373 75.444 63.864C75.1987 64.2907 74.868 64.6213 74.452 64.856C74.0467 65.08 73.5827 65.192 73.06 65.192ZM73.06 63.768C73.38 63.768 73.6467 63.6507 73.86 63.416C74.084 63.1707 74.196 62.8133 74.196 62.344C74.196 61.8747 74.084 61.5173 73.86 61.272C73.6467 61.0267 73.38 60.904 73.06 60.904C72.74 60.904 72.468 61.0267 72.244 61.272C72.0307 61.5173 71.924 61.8747 71.924 62.344C71.924 62.8133 72.0307 63.1707 72.244 63.416C72.468 63.6507 72.74 63.768 73.06 63.768Z" fill="#0C0D1D"/>
<defs>
<linearGradient id="paint0_linear_451_409" x1="80.0242" y1="59.6664" x2="62.926" y2="-231.309" gradientUnits="userSpaceOnUse">
<stop stop-color="#4352FF"/>
<stop offset="1" stop-color="#1B59F8" stop-opacity="0"/>
</linearGradient>
</defs>
</svg>
