<svg width="119" height="119" viewBox="0 0 119 119" fill="none" xmlns="http://www.w3.org/2000/svg">
<mask id="path-1-inside-1_451_403" fill="white">
<path d="M59.0494 5C59.0494 2.23858 61.2923 -0.0220225 64.0439 0.211594C77.08 1.31842 89.4332 6.73443 99.1097 15.6793C110.015 25.7598 116.719 39.5811 117.884 54.3859C119.049 69.1906 114.59 83.8905 105.396 95.5528C96.202 107.215 82.9493 114.983 68.2816 117.306C53.6139 119.629 38.6095 116.337 26.2618 108.086C13.914 99.8359 5.1306 87.2335 1.66382 72.7933C-1.80296 58.3531 0.30173 43.1366 7.55802 30.1796C13.9968 18.6824 24.0718 9.71409 36.1279 4.63305C38.6725 3.5606 41.5042 5.01746 42.3575 7.64373L48.3859 26.1971C49.2392 28.8233 47.7735 31.6079 45.3288 32.892C40.3033 35.5314 36.1119 39.5836 33.3037 44.5979C29.6756 51.0764 28.6232 58.6846 30.3566 65.9048C32.09 73.1249 36.4817 79.4261 42.6556 83.5513C48.8295 87.6766 56.3317 89.3226 63.6655 88.1611C70.9994 86.9995 77.6257 83.1157 82.2227 77.2845C86.8196 71.4533 89.0492 64.1034 88.4666 56.7011C87.884 49.2987 84.5321 42.388 79.0796 37.3478C74.8594 33.4466 69.6209 30.888 64.0257 29.9307C61.3039 29.465 59.0494 27.2695 59.0494 24.5081L59.0494 5Z"/>
</mask>
<path d="M59.0494 5C59.0494 2.23858 61.2923 -0.0220225 64.0439 0.211594C77.08 1.31842 89.4332 6.73443 99.1097 15.6793C110.015 25.7598 116.719 39.5811 117.884 54.3859C119.049 69.1906 114.59 83.8905 105.396 95.5528C96.202 107.215 82.9493 114.983 68.2816 117.306C53.6139 119.629 38.6095 116.337 26.2618 108.086C13.914 99.8359 5.1306 87.2335 1.66382 72.7933C-1.80296 58.3531 0.30173 43.1366 7.55802 30.1796C13.9968 18.6824 24.0718 9.71409 36.1279 4.63305C38.6725 3.5606 41.5042 5.01746 42.3575 7.64373L48.3859 26.1971C49.2392 28.8233 47.7735 31.6079 45.3288 32.892C40.3033 35.5314 36.1119 39.5836 33.3037 44.5979C29.6756 51.0764 28.6232 58.6846 30.3566 65.9048C32.09 73.1249 36.4817 79.4261 42.6556 83.5513C48.8295 87.6766 56.3317 89.3226 63.6655 88.1611C70.9994 86.9995 77.6257 83.1157 82.2227 77.2845C86.8196 71.4533 89.0492 64.1034 88.4666 56.7011C87.884 49.2987 84.5321 42.388 79.0796 37.3478C74.8594 33.4466 69.6209 30.888 64.0257 29.9307C61.3039 29.465 59.0494 27.2695 59.0494 24.5081L59.0494 5Z" fill="url(#paint0_linear_451_403)" stroke="#F4F5FB" stroke-width="4" mask="url(#path-1-inside-1_451_403)"/>
<g opacity="0.8">
<mask id="path-2-inside-2_451_403" fill="white">
<path d="M42.2041 7.69409C41.3429 5.07039 42.7686 2.22319 45.4558 1.58709C48.2272 0.931045 51.0426 0.476474 53.8797 0.226951C56.6305 -0.014982 58.8798 2.23885 58.8881 5.00026L58.9477 24.8732C58.9554 27.4331 56.8738 29.4774 54.3466 29.8854V29.8854C51.8195 30.2935 49.2003 29.0081 48.4019 26.5759L42.2041 7.69409Z"/>
</mask>
<path d="M42.2041 7.69409C41.3429 5.07039 42.7686 2.22319 45.4558 1.58709C48.2272 0.931045 51.0426 0.476474 53.8797 0.226951C56.6305 -0.014982 58.8798 2.23885 58.8881 5.00026L58.9477 24.8732C58.9554 27.4331 56.8738 29.4774 54.3466 29.8854V29.8854C51.8195 30.2935 49.2003 29.0081 48.4019 26.5759L42.2041 7.69409Z" fill="#BABDE3" stroke="#F4F5FB" stroke-width="4" mask="url(#path-2-inside-2_451_403)"/>
</g>
<path d="M46.9452 65.192C46.1665 65.192 45.5105 65.0427 44.9772 64.744C44.4439 64.4347 44.0279 64.0347 43.7292 63.544C43.4305 63.0533 43.2545 62.5253 43.2012 61.96H45.1052C45.1905 62.4507 45.3932 62.8293 45.7132 63.096C46.0439 63.3627 46.4599 63.496 46.9612 63.496C47.6759 63.496 48.2519 63.1707 48.6892 62.52C49.1265 61.8587 49.3612 60.856 49.3932 59.512C49.1372 59.9493 48.7479 60.312 48.2252 60.6C47.7132 60.888 47.1479 61.032 46.5292 61.032C45.9105 61.032 45.3292 60.8827 44.7852 60.584C44.2412 60.2853 43.7985 59.864 43.4572 59.32C43.1159 58.776 42.9452 58.136 42.9452 57.4C42.9452 56.728 43.1105 56.104 43.4412 55.528C43.7719 54.952 44.2305 54.488 44.8172 54.136C45.4039 53.784 46.0919 53.608 46.8812 53.608C47.7239 53.608 48.4332 53.7627 49.0092 54.072C49.5852 54.3813 50.0439 54.7973 50.3852 55.32C50.7372 55.8427 50.9879 56.424 51.1372 57.064C51.2972 57.704 51.3772 58.36 51.3772 59.032C51.3772 60.28 51.2012 61.368 50.8492 62.296C50.5079 63.2133 50.0012 63.928 49.3292 64.44C48.6679 64.9413 47.8732 65.192 46.9452 65.192ZM47.0092 59.304C47.4039 59.304 47.7612 59.2187 48.0812 59.048C48.4012 58.8667 48.6519 58.632 48.8332 58.344C49.0145 58.0453 49.1052 57.7147 49.1052 57.352C49.1052 56.776 48.9025 56.3013 48.4972 55.928C48.1025 55.5547 47.6012 55.368 46.9932 55.368C46.3959 55.368 45.8999 55.5547 45.5052 55.928C45.1105 56.2907 44.9132 56.7547 44.9132 57.32C44.9132 57.9173 45.1105 58.3973 45.5052 58.76C45.8999 59.1227 46.4012 59.304 47.0092 59.304ZM57.2778 65.192C56.4565 65.192 55.7472 65.048 55.1498 64.76C54.5632 64.472 54.0992 64.0773 53.7578 63.576C53.4272 63.064 53.2352 62.488 53.1818 61.848H55.1818C55.2778 62.3067 55.5125 62.6907 55.8858 63C56.2592 63.2987 56.7232 63.448 57.2778 63.448C57.8752 63.448 58.3605 63.2293 58.7338 62.792C59.1178 62.3547 59.3098 61.8107 59.3098 61.16C59.3098 60.488 59.1178 59.9547 58.7338 59.56C58.3605 59.1653 57.8858 58.968 57.3098 58.968C56.8298 58.968 56.4138 59.0853 56.0618 59.32C55.7098 59.5547 55.4592 59.848 55.3098 60.2H53.3418L54.3018 53.8H60.5098V55.592H55.8378L55.3258 58.184C55.5605 57.928 55.8805 57.72 56.2858 57.56C56.6912 57.3893 57.1445 57.304 57.6458 57.304C58.4458 57.304 59.1125 57.4853 59.6458 57.848C60.1792 58.2 60.5845 58.6693 60.8618 59.256C61.1392 59.832 61.2778 60.4613 61.2778 61.144C61.2778 61.9227 61.1072 62.616 60.7658 63.224C60.4352 63.832 59.9658 64.312 59.3578 64.664C58.7605 65.016 58.0672 65.192 57.2778 65.192ZM65.4877 59.304C64.9757 59.304 64.5117 59.192 64.0957 58.968C63.6797 58.7333 63.349 58.4027 63.1037 57.976C62.8584 57.5493 62.7357 57.0427 62.7357 56.456C62.7357 55.8693 62.8584 55.3627 63.1037 54.936C63.349 54.5093 63.6797 54.184 64.0957 53.96C64.5117 53.7253 64.981 53.608 65.5037 53.608C66.0157 53.608 66.4744 53.7253 66.8797 53.96C67.2957 54.184 67.6264 54.5093 67.8717 54.936C68.117 55.3627 68.2397 55.8693 68.2397 56.456C68.2397 57.0427 68.117 57.5493 67.8717 57.976C67.6264 58.4027 67.2957 58.7333 66.8797 58.968C66.4637 59.192 65.9997 59.304 65.4877 59.304ZM64.8797 65L71.1997 53.8H73.1997L66.8797 65H64.8797ZM65.4877 57.88C65.797 57.88 66.0637 57.7627 66.2877 57.528C66.5117 57.2827 66.6237 56.9253 66.6237 56.456C66.6237 55.9867 66.5117 55.6293 66.2877 55.384C66.0744 55.1387 65.8077 55.016 65.4877 55.016C65.1677 55.016 64.8957 55.1387 64.6717 55.384C64.4584 55.6293 64.3517 55.9867 64.3517 56.456C64.3517 56.9253 64.4584 57.2827 64.6717 57.528C64.8957 57.7627 65.1677 57.88 65.4877 57.88ZM72.6557 65.192C72.1437 65.192 71.6797 65.08 71.2637 64.856C70.8477 64.6213 70.517 64.2907 70.2717 63.864C70.0264 63.4373 69.9037 62.9307 69.9037 62.344C69.9037 61.7573 70.0264 61.256 70.2717 60.84C70.517 60.4133 70.8477 60.088 71.2637 59.864C71.6797 59.6293 72.149 59.512 72.6717 59.512C73.1837 59.512 73.6424 59.6293 74.0477 59.864C74.4637 60.088 74.7944 60.4133 75.0397 60.84C75.285 61.256 75.4077 61.7573 75.4077 62.344C75.4077 62.9307 75.285 63.4373 75.0397 63.864C74.7944 64.2907 74.4637 64.6213 74.0477 64.856C73.6424 65.08 73.1784 65.192 72.6557 65.192ZM72.6557 63.768C72.9757 63.768 73.2424 63.6507 73.4557 63.416C73.6797 63.1707 73.7917 62.8133 73.7917 62.344C73.7917 61.8747 73.6797 61.5173 73.4557 61.272C73.2424 61.0267 72.9757 60.904 72.6557 60.904C72.3357 60.904 72.0637 61.0267 71.8397 61.272C71.6264 61.5173 71.5197 61.8747 71.5197 62.344C71.5197 62.8133 71.6264 63.1707 71.8397 63.416C72.0637 63.6507 72.3357 63.768 72.6557 63.768Z" fill="#0C0D1D"/>
<defs>
<linearGradient id="paint0_linear_451_403" x1="80.0574" y1="59.6664" x2="62.9593" y2="-231.309" gradientUnits="userSpaceOnUse">
<stop stop-color="#4352FF"/>
<stop offset="1" stop-color="#1B59F8" stop-opacity="0"/>
</linearGradient>
</defs>
</svg>
