<svg width="119" height="119" viewBox="0 0 119 119" fill="none" xmlns="http://www.w3.org/2000/svg">
<mask id="path-1-inside-1_451_388" fill="white">
<path d="M59.0162 5C59.0162 2.23858 61.2589 -0.022007 64.0105 0.21166C73.9216 1.05334 83.4885 4.38989 91.8039 9.94603C101.509 16.4308 109.073 25.6479 113.54 36.4317C118.007 47.2155 119.176 59.0817 116.898 70.5297C114.621 81.9778 109.001 92.4934 100.747 100.747C92.4934 109.001 81.9778 114.621 70.5297 116.898C59.0817 119.176 47.2155 118.007 36.4317 113.54C25.6479 109.073 16.4308 101.509 9.94603 91.8039C4.38989 83.4885 1.05334 73.9216 0.21166 64.0105C-0.022007 61.2589 2.23858 59.0162 5 59.0162L24.5081 59.0162C27.2695 59.0162 29.465 61.2706 29.9307 63.9924C30.6262 68.0573 32.1694 71.9504 34.4811 75.4101C37.7235 80.2626 42.3321 84.0448 47.724 86.2782C53.1159 88.5116 59.049 89.0959 64.773 87.9574C70.497 86.8188 75.7548 84.0084 79.8816 79.8816C84.0084 75.7548 86.8188 70.497 87.9574 64.773C89.0959 59.049 88.5116 53.1159 86.2782 47.724C84.0448 42.3321 80.2626 37.7235 75.4101 34.4811C71.9504 32.1694 68.0573 30.6262 63.9924 29.9307C61.2706 29.465 59.0162 27.2695 59.0162 24.5081L59.0162 5Z"/>
</mask>
<path d="M59.0162 5C59.0162 2.23858 61.2589 -0.022007 64.0105 0.21166C73.9216 1.05334 83.4885 4.38989 91.8039 9.94603C101.509 16.4308 109.073 25.6479 113.54 36.4317C118.007 47.2155 119.176 59.0817 116.898 70.5297C114.621 81.9778 109.001 92.4934 100.747 100.747C92.4934 109.001 81.9778 114.621 70.5297 116.898C59.0817 119.176 47.2155 118.007 36.4317 113.54C25.6479 109.073 16.4308 101.509 9.94603 91.8039C4.38989 83.4885 1.05334 73.9216 0.21166 64.0105C-0.022007 61.2589 2.23858 59.0162 5 59.0162L24.5081 59.0162C27.2695 59.0162 29.465 61.2706 29.9307 63.9924C30.6262 68.0573 32.1694 71.9504 34.4811 75.4101C37.7235 80.2626 42.3321 84.0448 47.724 86.2782C53.1159 88.5116 59.049 89.0959 64.773 87.9574C70.497 86.8188 75.7548 84.0084 79.8816 79.8816C84.0084 75.7548 86.8188 70.497 87.9574 64.773C89.0959 59.049 88.5116 53.1159 86.2782 47.724C84.0448 42.3321 80.2626 37.7235 75.4101 34.4811C71.9504 32.1694 68.0573 30.6262 63.9924 29.9307C61.2706 29.465 59.0162 27.2695 59.0162 24.5081L59.0162 5Z" fill="url(#paint0_linear_451_388)" stroke="#F4F5FB" stroke-width="4" mask="url(#path-1-inside-1_451_388)"/>
<g opacity="0.5">
<mask id="path-2-inside-2_451_388" fill="white">
<path d="M8.41361 40.1184C5.8267 39.1523 4.4936 36.2604 5.67513 33.7646C10.1553 24.3006 17.088 16.1695 25.7914 10.241C34.4948 4.31238 44.5995 0.837833 55.0467 0.133628C57.8018 -0.052089 60.0048 2.2472 59.9568 5.00821L59.6171 24.5134C59.569 27.2744 57.2768 29.4303 54.5472 29.8485C50.214 30.5124 46.0614 32.1371 42.4038 34.6286C38.7462 37.1201 35.714 40.3895 33.5098 44.1788C32.1212 46.5657 29.2758 47.9095 26.6889 46.9434L8.41361 40.1184Z"/>
</mask>
<path d="M8.41361 40.1184C5.8267 39.1523 4.4936 36.2604 5.67513 33.7646C10.1553 24.3006 17.088 16.1695 25.7914 10.241C34.4948 4.31238 44.5995 0.837833 55.0467 0.133628C57.8018 -0.052089 60.0048 2.2472 59.9568 5.00821L59.6171 24.5134C59.569 27.2744 57.2768 29.4303 54.5472 29.8485C50.214 30.5124 46.0614 32.1371 42.4038 34.6286C38.7462 37.1201 35.714 40.3895 33.5098 44.1788C32.1212 46.5657 29.2758 47.9095 26.6889 46.9434L8.41361 40.1184Z" fill="#BABDE3" stroke="#F4F5FB" stroke-width="4" mask="url(#path-2-inside-2_451_388)"/>
</g>
<g opacity="0.8">
<mask id="path-3-inside-3_451_388" fill="white">
<path d="M5.00073 59.0162C2.23931 59.0162 -0.0212676 56.7737 0.21241 54.0222C0.582973 49.6588 1.43805 45.3502 2.76181 41.176C3.59657 38.5438 6.54219 37.3344 9.09434 38.389L27.124 45.8386C29.6762 46.8931 30.8445 49.8149 30.2354 52.5083C30.1206 53.0161 30.0193 53.5269 29.9315 54.0401C29.4658 56.762 27.2703 59.0162 24.5088 59.0162L5.00073 59.0162Z"/>
</mask>
<path d="M5.00073 59.0162C2.23931 59.0162 -0.0212676 56.7737 0.21241 54.0222C0.582973 49.6588 1.43805 45.3502 2.76181 41.176C3.59657 38.5438 6.54219 37.3344 9.09434 38.389L27.124 45.8386C29.6762 46.8931 30.8445 49.8149 30.2354 52.5083C30.1206 53.0161 30.0193 53.5269 29.9315 54.0401C29.4658 56.762 27.2703 59.0162 24.5088 59.0162L5.00073 59.0162Z" fill="#BABDE3" stroke="#F4F5FB" stroke-width="4" mask="url(#path-3-inside-3_451_388)"/>
</g>
<path d="M44.728 65L48.952 55.544H43.432V53.8H51.064V55.256L46.856 65H44.728ZM56.2603 65.192C55.4389 65.192 54.7296 65.048 54.1323 64.76C53.5456 64.472 53.0816 64.0773 52.7403 63.576C52.4096 63.064 52.2176 62.488 52.1643 61.848H54.1643C54.2603 62.3067 54.4949 62.6907 54.8683 63C55.2416 63.2987 55.7056 63.448 56.2603 63.448C56.8576 63.448 57.3429 63.2293 57.7163 62.792C58.1003 62.3547 58.2923 61.8107 58.2923 61.16C58.2923 60.488 58.1003 59.9547 57.7163 59.56C57.3429 59.1653 56.8683 58.968 56.2923 58.968C55.8123 58.968 55.3963 59.0853 55.0443 59.32C54.6923 59.5547 54.4416 59.848 54.2923 60.2H52.3243L53.2843 53.8H59.4923V55.592H54.8203L54.3083 58.184C54.5429 57.928 54.8629 57.72 55.2682 57.56C55.6736 57.3893 56.1269 57.304 56.6283 57.304C57.4283 57.304 58.0949 57.4853 58.6283 57.848C59.1616 58.2 59.5669 58.6693 59.8443 59.256C60.1216 59.832 60.2603 60.4613 60.2603 61.144C60.2603 61.9227 60.0896 62.616 59.7483 63.224C59.4176 63.832 58.9483 64.312 58.3403 64.664C57.7429 65.016 57.0496 65.192 56.2603 65.192ZM64.4701 59.304C63.9581 59.304 63.4941 59.192 63.0781 58.968C62.6621 58.7333 62.3315 58.4027 62.0861 57.976C61.8408 57.5493 61.7181 57.0427 61.7181 56.456C61.7181 55.8693 61.8408 55.3627 62.0861 54.936C62.3315 54.5093 62.6621 54.184 63.0781 53.96C63.4941 53.7253 63.9635 53.608 64.4861 53.608C64.9981 53.608 65.4568 53.7253 65.8621 53.96C66.2781 54.184 66.6088 54.5093 66.8541 54.936C67.0995 55.3627 67.2221 55.8693 67.2221 56.456C67.2221 57.0427 67.0995 57.5493 66.8541 57.976C66.6088 58.4027 66.2781 58.7333 65.8621 58.968C65.4461 59.192 64.9821 59.304 64.4701 59.304ZM63.8621 65L70.1821 53.8H72.1821L65.8621 65H63.8621ZM64.4701 57.88C64.7795 57.88 65.0461 57.7627 65.2701 57.528C65.4941 57.2827 65.6061 56.9253 65.6061 56.456C65.6061 55.9867 65.4941 55.6293 65.2701 55.384C65.0568 55.1387 64.7901 55.016 64.4701 55.016C64.1501 55.016 63.8781 55.1387 63.6541 55.384C63.4408 55.6293 63.3341 55.9867 63.3341 56.456C63.3341 56.9253 63.4408 57.2827 63.6541 57.528C63.8781 57.7627 64.1501 57.88 64.4701 57.88ZM71.6381 65.192C71.1261 65.192 70.6621 65.08 70.2461 64.856C69.8301 64.6213 69.4995 64.2907 69.2541 63.864C69.0088 63.4373 68.8861 62.9307 68.8861 62.344C68.8861 61.7573 69.0088 61.256 69.2541 60.84C69.4995 60.4133 69.8301 60.088 70.2461 59.864C70.6621 59.6293 71.1315 59.512 71.6541 59.512C72.1661 59.512 72.6248 59.6293 73.0301 59.864C73.4461 60.088 73.7768 60.4133 74.0221 60.84C74.2675 61.256 74.3901 61.7573 74.3901 62.344C74.3901 62.9307 74.2675 63.4373 74.0221 63.864C73.7768 64.2907 73.4461 64.6213 73.0301 64.856C72.6248 65.08 72.1608 65.192 71.6381 65.192ZM71.6381 63.768C71.9581 63.768 72.2248 63.6507 72.4381 63.416C72.6621 63.1707 72.7741 62.8133 72.7741 62.344C72.7741 61.8747 72.6621 61.5173 72.4381 61.272C72.2248 61.0267 71.9581 60.904 71.6381 60.904C71.3181 60.904 71.0461 61.0267 70.8221 61.272C70.6088 61.5173 70.5021 61.8747 70.5021 62.344C70.5021 62.8133 70.6088 63.1707 70.8221 63.416C71.0461 63.6507 71.3181 63.768 71.6381 63.768Z" fill="#0C0D1D"/>
<defs>
<linearGradient id="paint0_linear_451_388" x1="80.0242" y1="59.6664" x2="62.926" y2="-231.309" gradientUnits="userSpaceOnUse">
<stop stop-color="#4352FF"/>
<stop offset="1" stop-color="#1B59F8" stop-opacity="0"/>
</linearGradient>
</defs>
</svg>
