<svg width="119" height="119" viewBox="0 0 119 119" fill="none" xmlns="http://www.w3.org/2000/svg">
<mask id="path-1-inside-1_451_415" fill="white">
<path d="M59.0494 5C59.0494 2.23858 61.2922 -0.0220112 64.0437 0.211647C74.7333 1.11941 85.0081 4.92825 93.7383 11.2711C103.821 18.5967 111.326 28.9262 115.177 40.7792C119.028 52.6322 119.028 65.4002 115.177 77.2533C111.326 89.1063 103.821 99.4358 93.7383 106.761C83.6555 114.087 71.5124 118.032 59.0494 118.032C46.5864 118.032 34.4433 114.087 24.3606 106.761C14.2778 99.4358 6.77294 89.1063 2.92166 77.2532C-0.412971 66.9903 -0.860309 56.0414 1.57965 45.5944C2.20769 42.9054 5.05068 41.471 7.67695 42.3243L26.2303 48.3526C28.8565 49.206 30.2479 52.0284 29.8497 54.761C29.1992 59.2251 29.5778 63.8022 30.9855 68.1347C32.9112 74.0612 36.6636 79.226 41.705 82.8888C46.7464 86.5516 52.8179 88.5243 59.0494 88.5243C65.2809 88.5243 71.3525 86.5516 76.3939 82.8888C81.4353 79.226 85.1877 74.0613 87.1133 68.1347C89.039 62.2082 89.039 55.8242 87.1133 49.8977C85.1877 43.9712 81.4353 38.8065 76.3939 35.1437C72.7084 32.466 68.4723 30.6915 64.0257 29.9307C61.3038 29.465 59.0494 27.2695 59.0494 24.5081L59.0494 5Z"/>
</mask>
<path d="M59.0494 5C59.0494 2.23858 61.2922 -0.0220112 64.0437 0.211647C74.7333 1.11941 85.0081 4.92825 93.7383 11.2711C103.821 18.5967 111.326 28.9262 115.177 40.7792C119.028 52.6322 119.028 65.4002 115.177 77.2533C111.326 89.1063 103.821 99.4358 93.7383 106.761C83.6555 114.087 71.5124 118.032 59.0494 118.032C46.5864 118.032 34.4433 114.087 24.3606 106.761C14.2778 99.4358 6.77294 89.1063 2.92166 77.2532C-0.412971 66.9903 -0.860309 56.0414 1.57965 45.5944C2.20769 42.9054 5.05068 41.471 7.67695 42.3243L26.2303 48.3526C28.8565 49.206 30.2479 52.0284 29.8497 54.761C29.1992 59.2251 29.5778 63.8022 30.9855 68.1347C32.9112 74.0612 36.6636 79.226 41.705 82.8888C46.7464 86.5516 52.8179 88.5243 59.0494 88.5243C65.2809 88.5243 71.3525 86.5516 76.3939 82.8888C81.4353 79.226 85.1877 74.0613 87.1133 68.1347C89.039 62.2082 89.039 55.8242 87.1133 49.8977C85.1877 43.9712 81.4353 38.8065 76.3939 35.1437C72.7084 32.466 68.4723 30.6915 64.0257 29.9307C61.3038 29.465 59.0494 27.2695 59.0494 24.5081L59.0494 5Z" fill="url(#paint0_linear_451_415)" stroke="#F4F5FB" stroke-width="4" mask="url(#path-1-inside-1_451_415)"/>
<g opacity="0.5">
<mask id="path-2-inside-2_451_415" fill="white">
<path d="M14.9931 27.7626C12.7408 26.1648 12.1946 23.0278 13.9773 20.9188C19.0923 14.8672 25.3856 9.89409 32.4921 6.31308C39.5987 2.73206 47.3402 0.633057 55.2475 0.122601C58.0031 -0.0552933 60.1995 2.25025 60.1436 5.0111L59.7484 24.5152C59.6925 27.2761 57.3942 29.4255 54.6634 29.8359C51.5783 30.2996 48.5756 31.2513 45.7708 32.6647C42.9659 34.078 40.4145 35.9251 38.2061 38.1288C36.2514 40.0794 33.1564 40.6477 30.9042 39.0499L14.9931 27.7626Z"/>
</mask>
<path d="M14.9931 27.7626C12.7408 26.1648 12.1946 23.0278 13.9773 20.9188C19.0923 14.8672 25.3856 9.89409 32.4921 6.31308C39.5987 2.73206 47.3402 0.633057 55.2475 0.122601C58.0031 -0.0552933 60.1995 2.25025 60.1436 5.0111L59.7484 24.5152C59.6925 27.2761 57.3942 29.4255 54.6634 29.8359C51.5783 30.2996 48.5756 31.2513 45.7708 32.6647C42.9659 34.078 40.4145 35.9251 38.2061 38.1288C36.2514 40.0794 33.1564 40.6477 30.9042 39.0499L14.9931 27.7626Z" fill="#BABDE3" stroke="#F4F5FB" stroke-width="4" mask="url(#path-2-inside-2_451_415)"/>
</g>
<g opacity="0.8">
<mask id="path-3-inside-3_451_415" fill="white">
<path d="M7.87939 41.7158C5.26343 40.8314 3.84018 37.983 4.94281 35.4512C6.02313 32.9707 7.27275 30.5674 8.68282 28.2584C10.122 25.9016 13.2712 25.4307 15.4977 27.0642L31.6071 38.8827C33.6235 40.3621 34.0234 43.1845 32.8697 45.4034V45.4034C31.7159 47.6223 29.1759 48.916 26.8067 48.115L7.87939 41.7158Z"/>
</mask>
<path d="M7.87939 41.7158C5.26343 40.8314 3.84018 37.983 4.94281 35.4512C6.02313 32.9707 7.27275 30.5674 8.68282 28.2584C10.122 25.9016 13.2712 25.4307 15.4977 27.0642L31.6071 38.8827C33.6235 40.3621 34.0234 43.1845 32.8697 45.4034V45.4034C31.7159 47.6223 29.1759 48.916 26.8067 48.115L7.87939 41.7158Z" fill="#BABDE3" stroke="#F4F5FB" stroke-width="4" mask="url(#path-3-inside-3_451_415)"/>
</g>
<path d="M47.0732 65.192C46.3052 65.192 45.6119 65.0587 44.9932 64.792C44.3745 64.5147 43.8785 64.1253 43.5052 63.624C43.1425 63.1227 42.9612 62.5413 42.9612 61.88C42.9612 61.1973 43.1372 60.6 43.4892 60.088C43.8519 59.576 44.3265 59.208 44.9132 58.984C44.4012 58.76 43.9959 58.44 43.6972 58.024C43.3985 57.5973 43.2492 57.1227 43.2492 56.6C43.2492 56.0667 43.3932 55.576 43.6812 55.128C43.9692 54.6693 44.3959 54.3013 44.9612 54.024C45.5372 53.7467 46.2412 53.608 47.0732 53.608C47.9052 53.608 48.6039 53.7467 49.1692 54.024C49.7345 54.3013 50.1612 54.6693 50.4492 55.128C50.7372 55.576 50.8812 56.0667 50.8812 56.6C50.8812 57.112 50.7265 57.5867 50.4172 58.024C50.1185 58.4507 49.7185 58.7707 49.2172 58.984C49.8145 59.208 50.2892 59.576 50.6412 60.088C50.9932 60.6 51.1692 61.1973 51.1692 61.88C51.1692 62.5413 50.9879 63.1227 50.6252 63.624C50.2625 64.1253 49.7665 64.5147 49.1372 64.792C48.5185 65.0587 47.8305 65.192 47.0732 65.192ZM47.0732 58.376C47.6279 58.376 48.0652 58.232 48.3852 57.944C48.7052 57.656 48.8652 57.288 48.8652 56.84C48.8652 56.3493 48.7052 55.9653 48.3852 55.688C48.0759 55.4107 47.6385 55.272 47.0732 55.272C46.4972 55.272 46.0545 55.4107 45.7452 55.688C45.4359 55.9653 45.2812 56.3493 45.2812 56.84C45.2812 57.2987 45.4359 57.672 45.7452 57.96C46.0652 58.2373 46.5079 58.376 47.0732 58.376ZM47.0732 63.48C47.7559 63.48 48.2732 63.3147 48.6252 62.984C48.9772 62.6427 49.1532 62.216 49.1532 61.704C49.1532 61.1387 48.9665 60.696 48.5932 60.376C48.2305 60.056 47.7239 59.896 47.0732 59.896C46.4225 59.896 45.9052 60.056 45.5212 60.376C45.1479 60.696 44.9612 61.1387 44.9612 61.704C44.9612 62.216 45.1372 62.6427 45.4892 62.984C45.8519 63.3147 46.3799 63.48 47.0732 63.48ZM57.7757 65.192C56.741 65.192 55.8557 64.952 55.1197 64.472C54.3837 63.9813 53.813 63.304 53.4077 62.44C53.013 61.5653 52.8157 60.552 52.8157 59.4C52.8157 58.2587 53.013 57.2507 53.4077 56.376C53.813 55.5013 54.3837 54.824 55.1197 54.344C55.8557 53.8533 56.741 53.608 57.7757 53.608C58.8104 53.608 59.6957 53.8533 60.4317 54.344C61.1677 54.824 61.733 55.5013 62.1277 56.376C62.533 57.2507 62.7357 58.2587 62.7357 59.4C62.7357 60.552 62.533 61.5653 62.1277 62.44C61.733 63.304 61.1677 63.9813 60.4317 64.472C59.6957 64.952 58.8104 65.192 57.7757 65.192ZM57.7757 63.352C58.6184 63.352 59.3064 63 59.8397 62.296C60.373 61.592 60.6397 60.6267 60.6397 59.4C60.6397 58.1733 60.373 57.208 59.8397 56.504C59.3064 55.8 58.6184 55.448 57.7757 55.448C56.9224 55.448 56.229 55.8 55.6957 56.504C55.173 57.208 54.9117 58.1733 54.9117 59.4C54.9117 60.6267 55.173 61.592 55.6957 62.296C56.229 63 56.9224 63.352 57.7757 63.352ZM66.8471 59.304C66.3351 59.304 65.8711 59.192 65.4551 58.968C65.0391 58.7333 64.7084 58.4027 64.4631 57.976C64.2177 57.5493 64.0951 57.0427 64.0951 56.456C64.0951 55.8693 64.2177 55.3627 64.4631 54.936C64.7084 54.5093 65.0391 54.184 65.4551 53.96C65.8711 53.7253 66.3404 53.608 66.8631 53.608C67.3751 53.608 67.8337 53.7253 68.2391 53.96C68.6551 54.184 68.9857 54.5093 69.2311 54.936C69.4764 55.3627 69.5991 55.8693 69.5991 56.456C69.5991 57.0427 69.4764 57.5493 69.2311 57.976C68.9857 58.4027 68.6551 58.7333 68.2391 58.968C67.8231 59.192 67.3591 59.304 66.8471 59.304ZM66.2391 65L72.5591 53.8H74.5591L68.2391 65H66.2391ZM66.8471 57.88C67.1564 57.88 67.4231 57.7627 67.6471 57.528C67.8711 57.2827 67.9831 56.9253 67.9831 56.456C67.9831 55.9867 67.8711 55.6293 67.6471 55.384C67.4337 55.1387 67.1671 55.016 66.8471 55.016C66.5271 55.016 66.2551 55.1387 66.0311 55.384C65.8177 55.6293 65.7111 55.9867 65.7111 56.456C65.7111 56.9253 65.8177 57.2827 66.0311 57.528C66.2551 57.7627 66.5271 57.88 66.8471 57.88ZM74.0151 65.192C73.5031 65.192 73.0391 65.08 72.6231 64.856C72.2071 64.6213 71.8764 64.2907 71.6311 63.864C71.3857 63.4373 71.2631 62.9307 71.2631 62.344C71.2631 61.7573 71.3857 61.256 71.6311 60.84C71.8764 60.4133 72.2071 60.088 72.6231 59.864C73.0391 59.6293 73.5084 59.512 74.0311 59.512C74.5431 59.512 75.0017 59.6293 75.4071 59.864C75.8231 60.088 76.1537 60.4133 76.3991 60.84C76.6444 61.256 76.7671 61.7573 76.7671 62.344C76.7671 62.9307 76.6444 63.4373 76.3991 63.864C76.1537 64.2907 75.8231 64.6213 75.4071 64.856C75.0017 65.08 74.5377 65.192 74.0151 65.192ZM74.0151 63.768C74.3351 63.768 74.6017 63.6507 74.8151 63.416C75.0391 63.1707 75.1511 62.8133 75.1511 62.344C75.1511 61.8747 75.0391 61.5173 74.8151 61.272C74.6017 61.0267 74.3351 60.904 74.0151 60.904C73.6951 60.904 73.4231 61.0267 73.1991 61.272C72.9857 61.5173 72.8791 61.8747 72.8791 62.344C72.8791 62.8133 72.9857 63.1707 73.1991 63.416C73.4231 63.6507 73.6951 63.768 74.0151 63.768Z" fill="#0C0D1D"/>
<defs>
<linearGradient id="paint0_linear_451_415" x1="80.0574" y1="59.6664" x2="62.9593" y2="-231.309" gradientUnits="userSpaceOnUse">
<stop stop-color="#4352FF"/>
<stop offset="1" stop-color="#1B59F8" stop-opacity="0"/>
</linearGradient>
</defs>
</svg>
