<svg width="273" height="273" viewBox="0 0 273 273" fill="none" xmlns="http://www.w3.org/2000/svg">
<path d="M202.059 65.8602C240.906 102.234 242.911 163.212 206.537 202.059C170.164 240.906 109.185 242.911 70.3385 206.537C31.4916 170.164 29.4866 109.185 65.8602 70.3385C102.234 31.4916 163.212 29.4866 202.059 65.8602ZM78.4462 197.878C112.511 229.774 165.982 228.016 197.878 193.951C229.774 159.887 228.016 106.415 193.951 74.5192C159.887 42.6234 106.415 44.3816 74.5192 78.4462C42.6234 112.511 44.3816 165.982 78.4462 197.878Z" fill="#EBEBEB"/>
<path d="M137.069 45.313C137.079 42.0373 134.43 39.354 131.16 39.5446C115.687 40.4465 100.628 45.0704 87.2787 53.0607C72.2298 62.0683 59.9247 75.0125 51.6899 90.4979C43.4551 105.983 39.6028 123.422 40.5485 140.936C41.4941 158.449 47.2017 175.372 57.056 189.881C66.9103 204.389 80.5376 215.933 96.4689 223.268C112.4 230.603 130.031 233.451 147.462 231.504C164.892 229.558 181.461 222.891 195.382 212.222C207.73 202.758 217.58 190.464 224.122 176.413C225.504 173.444 223.987 169.992 220.938 168.795V168.795C217.889 167.597 214.465 169.109 213.057 172.067C207.321 184.113 198.8 194.657 188.166 202.807C175.959 212.162 161.43 218.008 146.145 219.715C130.861 221.422 115.4 218.925 101.43 212.493C87.4597 206.061 75.51 195.938 66.8688 183.216C58.2276 170.493 53.2227 155.653 52.3935 140.296C51.5643 124.939 54.9423 109.646 62.1633 96.0674C69.3844 82.4884 80.1747 71.1377 93.371 63.2389C104.867 56.3578 117.81 52.3238 131.122 51.4324C134.39 51.2136 137.058 48.5886 137.069 45.313V45.313Z" fill="#4352FF"/>
<path d="M122.054 145.322L127.603 130.844H120.316L120.435 129.171H129.795V130.639L124.019 145.322H122.054ZM139.814 144.944C139.101 145.361 138.266 145.57 137.309 145.57C136.352 145.57 135.513 145.361 134.794 144.944C134.074 144.519 133.494 143.926 133.055 143.163C132.624 142.4 132.3 141.522 132.084 140.528C131.875 139.535 131.771 138.43 131.771 137.214C131.771 136.214 131.839 135.289 131.976 134.439C132.12 133.59 132.339 132.82 132.634 132.129C132.929 131.438 133.293 130.852 133.725 130.369C134.164 129.887 134.686 129.516 135.29 129.257C135.895 128.991 136.568 128.858 137.309 128.858C138.23 128.858 139.044 129.059 139.749 129.462C140.461 129.865 141.037 130.441 141.476 131.19C141.923 131.931 142.257 132.809 142.48 133.824C142.703 134.832 142.815 135.962 142.815 137.214C142.815 138.43 142.711 139.535 142.502 140.528C142.293 141.522 141.973 142.4 141.541 143.163C141.109 143.926 140.533 144.519 139.814 144.944ZM139.198 131.373C138.673 130.79 138.043 130.499 137.309 130.499C136.575 130.499 135.945 130.79 135.42 131.373C134.894 131.949 134.498 132.734 134.232 133.727C133.973 134.713 133.843 135.854 133.843 137.149C133.843 138.466 133.973 139.632 134.232 140.647C134.498 141.655 134.894 142.454 135.42 143.044C135.945 143.634 136.575 143.929 137.309 143.929C138.043 143.929 138.673 143.634 139.198 143.044C139.724 142.454 140.116 141.655 140.375 140.647C140.641 139.632 140.775 138.466 140.775 137.149C140.775 135.854 140.641 134.713 140.375 133.727C140.116 132.734 139.724 131.949 139.198 131.373ZM159.452 137.182C160.668 137.182 161.607 137.567 162.27 138.337C162.932 139.1 163.263 140.1 163.263 141.338C163.263 142.547 162.925 143.541 162.248 144.318C161.579 145.095 160.647 145.484 159.452 145.484C158.243 145.484 157.307 145.099 156.645 144.329C155.983 143.551 155.652 142.554 155.652 141.338C155.652 140.122 155.986 139.125 156.656 138.348C157.325 137.57 158.257 137.182 159.452 137.182ZM161.244 139.254C160.819 138.693 160.222 138.412 159.452 138.412C158.682 138.412 158.081 138.697 157.649 139.265C157.224 139.834 157.012 140.525 157.012 141.338C157.012 142.166 157.224 142.86 157.649 143.422C158.081 143.983 158.682 144.264 159.452 144.264C160.222 144.264 160.819 143.98 161.244 143.411C161.676 142.842 161.892 142.151 161.892 141.338C161.892 140.51 161.676 139.816 161.244 139.254ZM148.332 145.365L156.915 129.538H158.664L149.789 145.365H148.332ZM148.537 129.246C149.581 129.246 150.416 129.639 151.042 130.423C151.675 131.201 151.992 132.194 151.992 133.403C151.992 134.583 151.675 135.555 151.042 136.318C150.408 137.081 149.573 137.462 148.537 137.462C147.493 137.462 146.662 137.084 146.043 136.329C145.424 135.566 145.115 134.591 145.115 133.403C145.115 132.201 145.424 131.208 146.043 130.423C146.669 129.639 147.501 129.246 148.537 129.246ZM148.537 130.445C147.889 130.445 147.385 130.733 147.026 131.309C146.666 131.884 146.486 132.582 146.486 133.403C146.486 134.231 146.662 134.907 147.015 135.433C147.375 135.951 147.882 136.21 148.537 136.21C149.192 136.21 149.699 135.944 150.059 135.411C150.419 134.871 150.599 134.202 150.599 133.403C150.599 132.575 150.416 131.877 150.048 131.309C149.681 130.733 149.178 130.445 148.537 130.445Z" fill="#100F0D"/>
</svg>
