<svg width="273" height="273" viewBox="0 0 273 273" fill="none" xmlns="http://www.w3.org/2000/svg">
<path d="M202.059 65.86C240.906 102.234 242.911 163.212 206.537 202.059C170.164 240.906 109.185 242.911 70.3385 206.537C31.4916 170.163 29.4866 109.185 65.8602 70.3384C102.234 31.4915 163.212 29.4864 202.059 65.86ZM78.4462 197.878C112.511 229.774 165.982 228.016 197.878 193.951C229.774 159.886 228.016 106.415 193.951 74.519C159.887 42.6232 106.415 44.3814 74.5192 78.4461C42.6234 112.511 44.3816 165.982 78.4462 197.878Z" fill="#EBEBEB"/>
<path d="M137.069 45.3128C137.079 42.0372 134.43 39.3538 131.16 39.5444C112.486 40.6326 94.4843 47.1382 79.3879 58.3279C62.6994 70.6977 50.4552 88.1294 44.4803 108.025C38.5053 127.92 39.1197 149.213 46.2317 168.731C53.3438 188.248 66.5727 204.945 83.9465 216.332C101.32 227.719 121.909 233.187 142.643 231.92C163.378 230.653 183.148 222.72 199.006 209.303C214.865 195.885 225.962 177.702 230.646 157.464C234.882 139.157 233.664 120.054 227.211 102.497C226.08 99.4224 222.563 98.064 219.564 99.3811V99.3811C216.564 100.698 215.222 104.192 216.326 107.276C221.766 122.483 222.749 138.974 219.089 154.79C214.982 172.537 205.25 188.481 191.344 200.247C177.438 212.012 160.102 218.969 141.92 220.08C123.738 221.191 105.684 216.396 90.449 206.411C75.214 196.426 63.6136 181.784 57.3771 164.669C51.1406 147.554 50.6019 128.882 55.8413 111.436C61.0806 93.9905 71.8176 78.7048 86.4516 67.8578C99.493 58.1912 115.007 52.5111 131.122 51.4322C134.39 51.2134 137.058 48.5885 137.069 45.3128V45.3128Z" fill="#4352FF"/>
<path d="M115.818 149L121.367 134.522H114.08L114.198 132.849H123.559V134.317L117.783 149H115.818ZM135.197 132.849L135.046 134.62H128.449C128.377 136.714 128.323 138.409 128.287 139.705C129.101 139.186 129.982 138.927 130.932 138.927C131.731 138.927 132.444 139.057 133.07 139.316C133.703 139.568 134.218 139.917 134.614 140.363C135.017 140.809 135.323 141.331 135.531 141.929C135.74 142.519 135.845 143.159 135.845 143.85C135.845 145.484 135.319 146.794 134.268 147.78C133.225 148.759 131.803 149.248 130.004 149.248C128.197 149.248 126.751 148.755 125.664 147.769L126.366 146.247C127.431 147.082 128.665 147.499 130.069 147.499C131.249 147.499 132.181 147.165 132.865 146.495C133.549 145.826 133.89 144.951 133.89 143.872C133.89 142.907 133.603 142.126 133.027 141.529C132.451 140.925 131.63 140.622 130.565 140.622C129.5 140.622 128.644 140.978 127.996 141.691L126.495 141.486L126.916 132.849H135.197ZM152.525 140.86C153.741 140.86 154.68 141.245 155.342 142.015C156.005 142.778 156.336 143.778 156.336 145.016C156.336 146.225 155.997 147.219 155.321 147.996C154.651 148.773 153.719 149.162 152.525 149.162C151.315 149.162 150.38 148.777 149.718 148.007C149.055 147.229 148.724 146.233 148.724 145.016C148.724 143.8 149.059 142.803 149.728 142.026C150.398 141.248 151.33 140.86 152.525 140.86ZM154.317 142.933C153.892 142.371 153.295 142.09 152.525 142.09C151.754 142.09 151.153 142.375 150.722 142.943C150.297 143.512 150.085 144.203 150.085 145.016C150.085 145.844 150.297 146.538 150.722 147.1C151.153 147.661 151.754 147.942 152.525 147.942C153.295 147.942 153.892 147.658 154.317 147.089C154.749 146.52 154.965 145.83 154.965 145.016C154.965 144.189 154.749 143.494 154.317 142.933ZM141.405 149.043L149.987 133.216H151.736L142.862 149.043H141.405ZM141.61 132.925C142.653 132.925 143.488 133.317 144.114 134.101C144.748 134.879 145.064 135.872 145.064 137.081C145.064 138.261 144.748 139.233 144.114 139.996C143.481 140.759 142.646 141.14 141.61 141.14C140.566 141.14 139.735 140.763 139.116 140.007C138.497 139.244 138.187 138.269 138.187 137.081C138.187 135.879 138.497 134.886 139.116 134.101C139.742 133.317 140.573 132.925 141.61 132.925ZM141.61 134.123C140.962 134.123 140.458 134.411 140.098 134.987C139.738 135.562 139.558 136.261 139.558 137.081C139.558 137.909 139.735 138.585 140.087 139.111C140.447 139.629 140.955 139.888 141.61 139.888C142.265 139.888 142.772 139.622 143.132 139.089C143.492 138.549 143.672 137.88 143.672 137.081C143.672 136.253 143.488 135.555 143.121 134.987C142.754 134.411 142.25 134.123 141.61 134.123Z" fill="#100F0D"/>
</svg>
