<svg width="273" height="273" viewBox="0 0 273 273" fill="none" xmlns="http://www.w3.org/2000/svg">
<path d="M119.413 145.248C118.434 145.248 117.549 145.086 116.757 144.763C115.973 144.432 115.336 143.928 114.846 143.251C114.357 142.575 114.112 141.772 114.112 140.844C114.112 139.814 114.407 138.918 114.997 138.155C115.587 137.392 116.412 136.838 117.47 136.493C115.454 135.78 114.447 134.485 114.447 132.606C114.447 131.332 114.907 130.335 115.829 129.616C116.75 128.896 117.945 128.536 119.413 128.536C120.874 128.536 122.058 128.896 122.965 129.616C123.872 130.335 124.325 131.332 124.325 132.606C124.325 133.556 124.08 134.355 123.591 135.003C123.102 135.651 122.418 136.147 121.54 136.493C122.511 136.838 123.274 137.392 123.829 138.155C124.383 138.918 124.66 139.814 124.66 140.844C124.66 142.226 124.16 143.305 123.159 144.082C122.166 144.86 120.917 145.248 119.413 145.248ZM119.413 137.41C118.384 137.648 117.56 138.047 116.941 138.609C116.322 139.163 116.012 139.865 116.012 140.714C116.012 141.599 116.332 142.305 116.973 142.83C117.614 143.348 118.427 143.607 119.413 143.607C120.399 143.607 121.201 143.348 121.82 142.83C122.447 142.305 122.76 141.599 122.76 140.714C122.76 139.858 122.457 139.152 121.853 138.598C121.248 138.037 120.435 137.641 119.413 137.41ZM119.413 130.177C118.564 130.177 117.84 130.389 117.243 130.814C116.653 131.239 116.358 131.822 116.358 132.563C116.358 134.262 117.376 135.338 119.413 135.791C121.421 135.338 122.425 134.262 122.425 132.563C122.425 131.822 122.134 131.239 121.551 130.814C120.968 130.389 120.255 130.177 119.413 130.177ZM134.981 144.622C134.268 145.04 133.433 145.248 132.476 145.248C131.519 145.248 130.68 145.04 129.961 144.622C129.241 144.198 128.662 143.604 128.223 142.841C127.791 142.078 127.467 141.2 127.251 140.207C127.042 139.213 126.938 138.109 126.938 136.892C126.938 135.892 127.006 134.967 127.143 134.118C127.287 133.268 127.506 132.498 127.801 131.807C128.097 131.116 128.46 130.53 128.892 130.048C129.331 129.565 129.853 129.195 130.457 128.936C131.062 128.669 131.735 128.536 132.476 128.536C133.397 128.536 134.211 128.738 134.916 129.141C135.629 129.544 136.204 130.119 136.643 130.868C137.09 131.609 137.424 132.487 137.648 133.502C137.871 134.51 137.982 135.64 137.982 136.892C137.982 138.109 137.878 139.213 137.669 140.207C137.46 141.2 137.14 142.078 136.708 142.841C136.276 143.604 135.701 144.198 134.981 144.622ZM134.366 131.052C133.84 130.469 133.21 130.177 132.476 130.177C131.742 130.177 131.112 130.469 130.587 131.052C130.061 131.627 129.666 132.412 129.399 133.405C129.14 134.391 129.011 135.532 129.011 136.827C129.011 138.145 129.14 139.311 129.399 140.325C129.666 141.333 130.061 142.132 130.587 142.722C131.112 143.312 131.742 143.607 132.476 143.607C133.21 143.607 133.84 143.312 134.366 142.722C134.891 142.132 135.283 141.333 135.542 140.325C135.809 139.311 135.942 138.145 135.942 136.827C135.942 135.532 135.809 134.391 135.542 133.405C135.283 132.412 134.891 131.627 134.366 131.052ZM154.619 136.86C155.835 136.86 156.775 137.245 157.437 138.015C158.099 138.778 158.43 139.778 158.43 141.016C158.43 142.226 158.092 143.219 157.415 143.996C156.746 144.773 155.814 145.162 154.619 145.162C153.41 145.162 152.474 144.777 151.812 144.007C151.15 143.23 150.819 142.233 150.819 141.016C150.819 139.8 151.153 138.803 151.823 138.026C152.492 137.249 153.424 136.86 154.619 136.86ZM156.411 138.933C155.987 138.371 155.389 138.091 154.619 138.091C153.849 138.091 153.248 138.375 152.816 138.944C152.391 139.512 152.179 140.203 152.179 141.016C152.179 141.844 152.391 142.539 152.816 143.1C153.248 143.661 153.849 143.942 154.619 143.942C155.389 143.942 155.987 143.658 156.411 143.089C156.843 142.521 157.059 141.83 157.059 141.016C157.059 140.189 156.843 139.494 156.411 138.933ZM143.499 145.043L152.082 129.216H153.831L144.957 145.043H143.499ZM143.704 128.925C144.748 128.925 145.583 129.317 146.209 130.101C146.842 130.879 147.159 131.872 147.159 133.081C147.159 134.262 146.842 135.233 146.209 135.996C145.575 136.759 144.741 137.141 143.704 137.141C142.661 137.141 141.829 136.763 141.21 136.007C140.591 135.244 140.282 134.269 140.282 133.081C140.282 131.879 140.591 130.886 141.21 130.101C141.836 129.317 142.668 128.925 143.704 128.925ZM143.704 130.123C143.056 130.123 142.553 130.411 142.193 130.987C141.833 131.563 141.653 132.261 141.653 133.081C141.653 133.909 141.829 134.585 142.182 135.111C142.542 135.629 143.049 135.888 143.704 135.888C144.359 135.888 144.867 135.622 145.226 135.089C145.586 134.549 145.766 133.88 145.766 133.081C145.766 132.254 145.583 131.555 145.216 130.987C144.849 130.411 144.345 130.123 143.704 130.123Z" fill="#100F0D"/>
<path d="M202.059 65.8601C240.906 102.234 242.911 163.212 206.537 202.059C170.164 240.906 109.185 242.911 70.3385 206.537C31.4916 170.164 29.4866 109.185 65.8602 70.3385C102.234 31.4916 163.212 29.4866 202.059 65.8601ZM78.4462 197.878C112.511 229.774 165.982 228.016 197.878 193.951C229.774 159.886 228.016 106.415 193.951 74.5191C159.887 42.6233 106.415 44.3815 74.5192 78.4462C42.6234 112.511 44.3816 165.982 78.4462 197.878Z" fill="#EBEBEB"/>
<path d="M137.069 45.3129C137.079 42.0373 134.43 39.354 131.16 39.5445C112.718 40.6192 94.9273 46.9777 79.9412 57.921C63.3547 70.033 51.072 87.1278 44.8848 106.712C38.6976 126.296 38.9296 147.344 45.547 166.787C52.1643 186.23 64.8209 203.05 81.6704 214.793C98.5199 226.537 118.681 232.59 139.212 232.068C159.744 231.547 179.572 224.48 195.804 211.897C212.036 199.314 223.823 181.873 229.445 162.12C234.525 144.272 234.333 125.38 228.958 107.706C228.005 104.572 224.571 103.015 221.501 104.159V104.159C218.432 105.303 216.893 108.715 217.819 111.857C222.326 127.153 222.424 143.457 218.036 158.872C213.106 176.194 202.77 191.487 188.536 202.521C174.302 213.556 156.915 219.753 138.911 220.21C120.907 220.667 103.228 215.359 88.4531 205.062C73.6778 194.764 62.5794 180.015 56.7766 162.965C50.9739 145.916 50.7704 127.458 56.196 110.285C61.6215 93.1123 72.3921 78.1219 86.9368 67.5009C99.8804 58.049 115.21 52.4976 131.122 51.4323C134.39 51.2135 137.058 48.5886 137.069 45.3129V45.3129Z" fill="#4352FF"/>
</svg>
