<svg width="273" height="273" viewBox="0 0 273 273" fill="none" xmlns="http://www.w3.org/2000/svg">
<path d="M202.059 65.8602C240.906 102.234 242.911 163.212 206.537 202.059C170.164 240.906 109.185 242.911 70.3385 206.537C31.4916 170.164 29.4866 109.185 65.8602 70.3385C102.234 31.4916 163.212 29.4866 202.059 65.8602ZM78.4462 197.878C112.511 229.774 165.982 228.016 197.878 193.951C229.774 159.887 228.016 106.415 193.951 74.5192C159.887 42.6234 106.415 44.3816 74.5192 78.4462C42.6234 112.511 44.3816 165.982 78.4462 197.878Z" fill="#EBEBEB"/>
<path d="M137.069 45.3129C137.079 42.0373 134.43 39.354 131.16 39.5445C110.52 40.7472 90.753 48.5649 74.8337 61.9211C57.3956 76.5514 45.6999 96.8827 41.8191 119.312C37.9383 141.741 42.1229 164.82 53.6315 184.459C65.14 204.098 83.2294 219.028 104.694 226.605C126.158 234.181 149.612 233.915 170.899 225.852C192.186 217.789 209.931 202.451 220.99 182.556C232.049 162.66 235.707 139.492 231.317 117.157C227.31 96.7669 216.831 78.273 201.519 64.3799C199.093 62.1787 195.346 62.6043 193.298 65.161V65.161C191.251 67.7177 191.68 71.4356 194.086 73.6576C207.22 85.7833 216.211 101.805 219.678 119.445C223.527 139.03 220.319 159.346 210.622 176.792C200.924 194.239 185.363 207.689 166.697 214.759C148.031 221.829 127.464 222.063 108.642 215.419C89.8202 208.775 73.9577 195.683 63.8659 178.461C53.7741 161.24 50.1046 141.002 53.5077 121.334C56.9108 101.666 67.1667 83.8379 82.458 71.0086C96.2301 59.4539 113.286 52.6263 131.122 51.4323C134.39 51.2135 137.058 48.5886 137.069 45.3129V45.3129Z" fill="#4352FF"/>
<path d="M119.071 138.866C118.157 138.866 117.315 138.668 116.545 138.272C115.782 137.869 115.166 137.29 114.699 136.534C114.231 135.778 113.997 134.918 113.997 133.954C113.997 132.485 114.501 131.269 115.508 130.305C116.516 129.34 117.833 128.858 119.46 128.858C120.302 128.858 121.065 128.995 121.748 129.268C122.439 129.534 123.004 129.905 123.443 130.38C123.89 130.848 124.232 131.399 124.469 132.032C124.714 132.658 124.836 133.338 124.836 134.072C124.836 135.102 124.66 136.034 124.307 136.869C123.954 137.703 123.346 138.707 122.483 139.881C122.173 140.291 121.655 140.949 120.928 141.856C120.208 142.763 119.564 143.566 118.995 144.264L118.143 145.322H115.767L121.5 138.218C120.687 138.65 119.877 138.866 119.071 138.866ZM122.796 133.867C122.796 132.881 122.515 132.075 121.954 131.449C121.399 130.816 120.59 130.499 119.524 130.499C118.452 130.499 117.603 130.83 116.977 131.492C116.35 132.147 116.037 132.957 116.037 133.921C116.037 134.929 116.34 135.735 116.944 136.34C117.549 136.944 118.387 137.246 119.46 137.246C120.597 137.246 121.435 136.933 121.975 136.307C122.522 135.681 122.796 134.868 122.796 133.867ZM134.877 144.944C134.164 145.361 133.329 145.57 132.372 145.57C131.415 145.57 130.576 145.361 129.856 144.944C129.137 144.519 128.557 143.926 128.118 143.163C127.686 142.4 127.362 141.522 127.146 140.528C126.938 139.535 126.833 138.43 126.833 137.214C126.833 136.214 126.902 135.289 127.039 134.439C127.182 133.59 127.402 132.82 127.697 132.129C127.992 131.438 128.356 130.852 128.788 130.369C129.227 129.887 129.748 129.516 130.353 129.257C130.958 128.991 131.63 128.858 132.372 128.858C133.293 128.858 134.106 129.059 134.812 129.462C135.524 129.865 136.1 130.441 136.539 131.19C136.985 131.931 137.32 132.809 137.543 133.824C137.766 134.832 137.878 135.962 137.878 137.214C137.878 138.43 137.773 139.535 137.565 140.528C137.356 141.522 137.036 142.4 136.604 143.163C136.172 143.926 135.596 144.519 134.877 144.944ZM134.261 131.373C133.736 130.79 133.106 130.499 132.372 130.499C131.638 130.499 131.008 130.79 130.482 131.373C129.957 131.949 129.561 132.734 129.295 133.727C129.036 134.713 128.906 135.854 128.906 137.149C128.906 138.466 129.036 139.632 129.295 140.647C129.561 141.655 129.957 142.454 130.482 143.044C131.008 143.634 131.638 143.929 132.372 143.929C133.106 143.929 133.736 143.634 134.261 143.044C134.787 142.454 135.179 141.655 135.438 140.647C135.704 139.632 135.837 138.466 135.837 137.149C135.837 135.854 135.704 134.713 135.438 133.727C135.179 132.734 134.787 131.949 134.261 131.373ZM154.515 137.182C155.731 137.182 156.67 137.567 157.332 138.337C157.995 139.1 158.326 140.1 158.326 141.338C158.326 142.547 157.987 143.541 157.311 144.318C156.641 145.095 155.709 145.484 154.515 145.484C153.305 145.484 152.37 145.099 151.708 144.329C151.045 143.551 150.714 142.554 150.714 141.338C150.714 140.122 151.049 139.125 151.718 138.348C152.388 137.57 153.32 137.182 154.515 137.182ZM156.307 139.254C155.882 138.693 155.285 138.412 154.515 138.412C153.745 138.412 153.144 138.697 152.712 139.265C152.287 139.834 152.075 140.525 152.075 141.338C152.075 142.166 152.287 142.86 152.712 143.422C153.144 143.983 153.745 144.264 154.515 144.264C155.285 144.264 155.882 143.98 156.307 143.411C156.739 142.842 156.955 142.151 156.955 141.338C156.955 140.51 156.739 139.816 156.307 139.254ZM143.395 145.365L151.978 129.538H153.727L144.852 145.365H143.395ZM143.6 129.246C144.643 129.246 145.478 129.639 146.104 130.423C146.738 131.201 147.055 132.194 147.055 133.403C147.055 134.583 146.738 135.555 146.104 136.318C145.471 137.081 144.636 137.462 143.6 137.462C142.556 137.462 141.725 137.084 141.106 136.329C140.487 135.566 140.177 134.591 140.177 133.403C140.177 132.201 140.487 131.208 141.106 130.423C141.732 129.639 142.563 129.246 143.6 129.246ZM143.6 130.445C142.952 130.445 142.448 130.733 142.088 131.309C141.728 131.884 141.549 132.582 141.549 133.403C141.549 134.231 141.725 134.907 142.078 135.433C142.437 135.951 142.945 136.21 143.6 136.21C144.255 136.21 144.762 135.944 145.122 135.411C145.482 134.871 145.662 134.202 145.662 133.403C145.662 132.575 145.478 131.877 145.111 131.309C144.744 130.733 144.24 130.445 143.6 130.445Z" fill="#100F0D"/>
</svg>
