<svg width="273" height="273" viewBox="0 0 273 273" fill="none" xmlns="http://www.w3.org/2000/svg">
<path d="M202.059 65.8601C240.906 102.234 242.911 163.212 206.537 202.059C170.164 240.906 109.185 242.911 70.3385 206.537C31.4916 170.164 29.4866 109.185 65.8602 70.3385C102.234 31.4916 163.212 29.4866 202.059 65.8601ZM78.4462 197.878C112.511 229.774 165.982 228.016 197.878 193.951C229.774 159.886 228.016 106.415 193.951 74.5191C159.887 42.6233 106.415 44.3815 74.5192 78.4462C42.6234 112.511 44.3816 165.982 78.4462 197.878Z" fill="#EBEBEB"/>
<path d="M137.069 45.3131C137.079 42.0374 134.43 39.3541 131.16 39.5446C110.323 40.7588 90.3812 48.7144 74.3906 62.2952C56.889 77.1593 45.2706 97.7846 41.6283 120.456C37.986 143.127 42.5593 166.354 54.5244 185.952C66.4894 205.55 85.0597 220.231 106.89 227.351C128.72 234.47 152.375 233.56 173.594 224.785C194.813 216.009 212.2 199.945 222.625 179.485C233.049 159.026 235.824 135.517 230.451 113.192C225.542 92.7954 214.125 74.6127 198.01 61.347C195.481 59.2652 191.759 59.8705 189.837 62.5228V62.5228C187.915 65.175 188.522 68.868 191.033 70.9717C204.867 82.5623 214.671 98.32 218.918 115.968C223.63 135.544 221.196 156.16 212.055 174.1C202.914 192.041 187.667 206.128 169.06 213.823C150.454 221.518 129.711 222.316 110.568 216.073C91.4252 209.83 75.141 196.956 64.6489 179.77C54.1568 162.585 50.1465 142.218 53.3404 122.337C56.5342 102.457 66.7224 84.3709 82.0695 71.3367C95.9051 59.5862 113.114 52.6379 131.122 51.4324C134.39 51.2136 137.058 48.5887 137.069 45.3131V45.3131Z" fill="#4352FF"/>
<path d="M125.239 138.866C124.325 138.866 123.483 138.668 122.713 138.272C121.95 137.869 121.334 137.29 120.867 136.534C120.399 135.778 120.165 134.918 120.165 133.954C120.165 132.485 120.669 131.269 121.676 130.305C122.684 129.34 124.001 128.858 125.628 128.858C126.47 128.858 127.233 128.995 127.916 129.268C128.607 129.535 129.172 129.905 129.611 130.38C130.058 130.848 130.4 131.399 130.637 132.032C130.882 132.658 131.004 133.338 131.004 134.072C131.004 135.102 130.828 136.034 130.475 136.869C130.122 137.704 129.514 138.708 128.651 139.881C128.341 140.291 127.823 140.95 127.096 141.856C126.376 142.763 125.732 143.566 125.163 144.264L124.311 145.322H121.935L127.668 138.218C126.855 138.65 126.045 138.866 125.239 138.866ZM128.964 133.867C128.964 132.881 128.683 132.075 128.122 131.449C127.567 130.816 126.758 130.499 125.692 130.499C124.62 130.499 123.771 130.83 123.145 131.492C122.518 132.147 122.205 132.957 122.205 133.921C122.205 134.929 122.508 135.735 123.112 136.34C123.717 136.944 124.555 137.247 125.628 137.247C126.765 137.247 127.603 136.933 128.143 136.307C128.69 135.681 128.964 134.868 128.964 133.867ZM142.664 129.171L142.513 130.942H135.916C135.844 133.036 135.79 134.731 135.754 136.027C136.568 135.508 137.449 135.249 138.399 135.249C139.198 135.249 139.911 135.379 140.537 135.638C141.17 135.89 141.685 136.239 142.081 136.685C142.484 137.131 142.79 137.653 142.999 138.251C143.207 138.841 143.312 139.481 143.312 140.172C143.312 141.806 142.786 143.116 141.735 144.102C140.692 145.081 139.27 145.57 137.471 145.57C135.664 145.57 134.218 145.077 133.131 144.091L133.833 142.569C134.898 143.404 136.132 143.821 137.536 143.821C138.716 143.821 139.648 143.487 140.332 142.817C141.016 142.148 141.358 141.273 141.358 140.194C141.358 139.229 141.07 138.448 140.494 137.851C139.918 137.247 139.098 136.944 138.032 136.944C136.967 136.944 136.111 137.301 135.463 138.013L133.962 137.808L134.383 129.171H142.664ZM159.992 137.182C161.208 137.182 162.147 137.567 162.809 138.337C163.472 139.1 163.803 140.1 163.803 141.338C163.803 142.547 163.464 143.541 162.788 144.318C162.118 145.095 161.186 145.484 159.992 145.484C158.782 145.484 157.847 145.099 157.185 144.329C156.523 143.551 156.191 142.555 156.191 141.338C156.191 140.122 156.526 139.125 157.195 138.348C157.865 137.57 158.797 137.182 159.992 137.182ZM161.784 139.255C161.359 138.693 160.762 138.413 159.992 138.413C159.222 138.413 158.621 138.697 158.189 139.265C157.764 139.834 157.552 140.525 157.552 141.338C157.552 142.166 157.764 142.861 158.189 143.422C158.621 143.983 159.222 144.264 159.992 144.264C160.762 144.264 161.359 143.98 161.784 143.411C162.216 142.843 162.432 142.152 162.432 141.338C162.432 140.511 162.216 139.816 161.784 139.255ZM148.872 145.365L157.455 129.538H159.204L150.329 145.365H148.872ZM149.077 129.247C150.12 129.247 150.955 129.639 151.581 130.423C152.215 131.201 152.532 132.194 152.532 133.403C152.532 134.583 152.215 135.555 151.581 136.318C150.948 137.081 150.113 137.462 149.077 137.462C148.033 137.462 147.202 137.085 146.583 136.329C145.964 135.566 145.654 134.591 145.654 133.403C145.654 132.201 145.964 131.208 146.583 130.423C147.209 129.639 148.04 129.247 149.077 129.247ZM149.077 130.445C148.429 130.445 147.925 130.733 147.565 131.309C147.205 131.884 147.026 132.583 147.026 133.403C147.026 134.231 147.202 134.907 147.555 135.433C147.914 135.951 148.422 136.21 149.077 136.21C149.732 136.21 150.239 135.944 150.599 135.411C150.959 134.871 151.139 134.202 151.139 133.403C151.139 132.575 150.955 131.877 150.588 131.309C150.221 130.733 149.717 130.445 149.077 130.445Z" fill="#100F0D"/>
</svg>
