<svg xmlns="http://www.w3.org/2000/svg" width="162" height="162" viewBox="0 0 162 162" fill="none">
  <path d="M121 61L125.33 53.5H116.67L121 61ZM41 121L37.3106 128.835L45.9407 128.113L41 121ZM120.25 41V54.25H121.75V41H120.25ZM120.25 111V121H121.75V111H120.25ZM120.25 86V111H121.75V86H120.25ZM41.75 81V41H40.25V81H41.75ZM41.75 101V81H40.25V101H41.75ZM81 160.25C61.5728 160.25 45.4408 146.135 42.3026 127.601L40.8236 127.851C44.082 147.095 60.8288 161.75 81 161.75V160.25ZM81 161.75C103.506 161.75 121.75 143.506 121.75 121H120.25C120.25 142.677 102.677 160.25 81 160.25V161.75ZM81 1.75C102.677 1.75 120.25 19.3228 120.25 41H121.75C121.75 18.4944 103.506 0.25 81 0.25V1.75ZM81 0.25C58.4944 0.25 40.25 18.4944 40.25 41H41.75C41.75 19.3228 59.3228 1.75 81 1.75V0.25Z" fill="url(#paint0_linear_410_321)"/>
  <path d="M61 41L53.5 36.6699V45.3301L61 41ZM121 121L128.835 124.689L128.113 116.059L121 121ZM41 41.75H54.25V40.25H41V41.75ZM111 41.75L121 41.75V40.25L111 40.25V41.75ZM86 41.75H111V40.25H86V41.75ZM81 120.25H41V121.75H81V120.25ZM101 120.25H81V121.75H101V120.25ZM160.25 81C160.25 100.427 146.135 116.559 127.601 119.697L127.851 121.176C147.095 117.918 161.75 101.171 161.75 81H160.25ZM161.75 81C161.75 58.4944 143.506 40.25 121 40.25V41.75C142.677 41.75 160.25 59.3228 160.25 81H161.75ZM1.75 81C1.75 59.3228 19.3228 41.75 41 41.75V40.25C18.4944 40.25 0.25 58.4944 0.25 81H1.75ZM0.25 81C0.25 103.506 18.4944 121.75 41 121.75V120.25C19.3228 120.25 1.75 102.677 1.75 81H0.25Z" fill="url(#paint1_linear_410_321)"/>
  <path d="M81.0004 53.9949L86.9888 72.3168L87.1577 72.8338H87.7017H107.068L91.4041 84.1473L90.9603 84.4679L91.1304 84.9883L97.1159 103.301L81.4395 91.9787L81.0004 91.6615L80.5612 91.9787L64.8849 103.301L70.8704 84.9883L71.0405 84.4679L70.5966 84.1473L54.9326 72.8338H74.2991H74.843L75.012 72.3168L81.0004 53.9949Z" fill="#4353FF" stroke="url(#paint2_linear_410_321)" stroke-width="1.5"/>
  <defs>
    <linearGradient id="paint0_linear_410_321" x1="81" y1="1" x2="81" y2="161" gradientUnits="userSpaceOnUse">
      <stop stop-color="#4353FF"/>
      <stop offset="0.9999" stop-color="#4353FF" stop-opacity="0.244792"/>
      <stop offset="1" stop-color="#4353FF" stop-opacity="0"/>
    </linearGradient>
    <linearGradient id="paint1_linear_410_321" x1="1" y1="81" x2="161" y2="81" gradientUnits="userSpaceOnUse">
      <stop stop-color="#4353FF"/>
      <stop offset="0.9999" stop-color="#4353FF" stop-opacity="0.244792"/>
      <stop offset="1" stop-color="#4353FF" stop-opacity="0"/>
    </linearGradient>
    <linearGradient id="paint2_linear_410_321" x1="81.0004" y1="51.5808" x2="81.0004" y2="105.258" gradientUnits="userSpaceOnUse">
      <stop stop-color="#4353FF"/>
      <stop offset="0.9999" stop-color="#4353FF" stop-opacity="0.244792"/>
      <stop offset="1" stop-color="#4353FF" stop-opacity="0"/>
    </linearGradient>
  </defs>
</svg>