<svg width="119" height="119" viewBox="0 0 119 119" fill="none" xmlns="http://www.w3.org/2000/svg">
<path d="M59.0494 5C59.0494 2.23858 61.2923 -0.0220216 64.0438 0.211601C76.7661 1.29181 88.8463 6.47687 98.4241 15.0554C109.248 24.7501 116.115 38.0971 117.709 52.5401C119.304 66.9831 115.514 81.5067 107.066 93.3291C98.6172 105.151 86.1042 113.441 71.9234 116.611C57.7426 119.781 42.8909 117.608 30.2128 110.508C17.5348 103.408 7.92179 91.8799 3.21504 78.1326C-1.49172 64.3853 -0.961334 49.3847 4.70461 36.0041C9.71824 24.1641 18.4411 14.329 29.4926 7.9347C31.8828 6.55177 34.8747 7.64226 36.0505 10.1409L44.3566 27.7923C45.5324 30.291 44.4273 33.2373 42.1627 34.8176C37.6354 37.977 34.0557 42.365 31.877 47.5102C29.0441 54.2005 28.7789 61.7007 31.1322 68.5744C33.4856 75.4481 38.2921 81.2119 44.6311 84.7619C50.9701 88.312 58.396 89.3986 65.4864 87.8137C72.5768 86.2288 78.8333 82.0838 83.0575 76.1726C87.2817 70.2615 89.1766 62.9997 88.3794 55.7782C87.5821 48.5567 84.1487 41.8831 78.7367 37.0358C74.5747 33.3079 69.4674 30.8617 64.0257 29.9307C61.3039 29.465 59.0494 27.2695 59.0494 24.5081L59.0494 5Z" fill="#4352FF"/>
<path opacity="0.8" d="M40.5766 8.25719C39.6322 5.66228 40.9664 2.77109 43.6319 2.04965C45.187 1.62877 46.7586 1.27173 48.3429 0.979449C51.0585 0.478447 53.5109 2.50945 53.7803 5.2577L55.8096 25.9585C56.0094 27.9967 54.5104 29.7876 52.5133 30.2413V30.2413C50.5163 30.695 48.3906 29.7274 47.6902 27.803L40.5766 8.25719Z" fill="#1C1F45"/>
<path d="M46.9452 65.192C46.1665 65.192 45.5105 65.0427 44.9772 64.744C44.4439 64.4347 44.0279 64.0347 43.7292 63.544C43.4305 63.0533 43.2545 62.5253 43.2012 61.96H45.1052C45.1905 62.4507 45.3932 62.8293 45.7132 63.096C46.0439 63.3627 46.4599 63.496 46.9612 63.496C47.6759 63.496 48.2519 63.1707 48.6892 62.52C49.1265 61.8587 49.3612 60.856 49.3932 59.512C49.1372 59.9493 48.7479 60.312 48.2252 60.6C47.7132 60.888 47.1479 61.032 46.5292 61.032C45.9105 61.032 45.3292 60.8827 44.7852 60.584C44.2412 60.2853 43.7985 59.864 43.4572 59.32C43.1159 58.776 42.9452 58.136 42.9452 57.4C42.9452 56.728 43.1105 56.104 43.4412 55.528C43.7719 54.952 44.2305 54.488 44.8172 54.136C45.4039 53.784 46.0919 53.608 46.8812 53.608C47.7239 53.608 48.4332 53.7627 49.0092 54.072C49.5852 54.3813 50.0439 54.7973 50.3852 55.32C50.7372 55.8427 50.9879 56.424 51.1372 57.064C51.2972 57.704 51.3772 58.36 51.3772 59.032C51.3772 60.28 51.2012 61.368 50.8492 62.296C50.5079 63.2133 50.0012 63.928 49.3292 64.44C48.6679 64.9413 47.8732 65.192 46.9452 65.192ZM47.0092 59.304C47.4039 59.304 47.7612 59.2187 48.0812 59.048C48.4012 58.8667 48.6519 58.632 48.8332 58.344C49.0145 58.0453 49.1052 57.7147 49.1052 57.352C49.1052 56.776 48.9025 56.3013 48.4972 55.928C48.1025 55.5547 47.6012 55.368 46.9932 55.368C46.3959 55.368 45.8999 55.5547 45.5052 55.928C45.1105 56.2907 44.9132 56.7547 44.9132 57.32C44.9132 57.9173 45.1105 58.3973 45.5052 58.76C45.8999 59.1227 46.4012 59.304 47.0092 59.304ZM57.2778 65.192C56.4565 65.192 55.7472 65.048 55.1498 64.76C54.5632 64.472 54.0992 64.0773 53.7578 63.576C53.4272 63.064 53.2352 62.488 53.1818 61.848H55.1818C55.2778 62.3067 55.5125 62.6907 55.8858 63C56.2592 63.2987 56.7232 63.448 57.2778 63.448C57.8752 63.448 58.3605 63.2293 58.7338 62.792C59.1178 62.3547 59.3098 61.8107 59.3098 61.16C59.3098 60.488 59.1178 59.9547 58.7338 59.56C58.3605 59.1653 57.8858 58.968 57.3098 58.968C56.8298 58.968 56.4138 59.0853 56.0618 59.32C55.7098 59.5547 55.4592 59.848 55.3098 60.2H53.3418L54.3018 53.8H60.5098V55.592H55.8378L55.3258 58.184C55.5605 57.928 55.8805 57.72 56.2858 57.56C56.6912 57.3893 57.1445 57.304 57.6458 57.304C58.4458 57.304 59.1125 57.4853 59.6458 57.848C60.1792 58.2 60.5845 58.6693 60.8618 59.256C61.1392 59.832 61.2778 60.4613 61.2778 61.144C61.2778 61.9227 61.1072 62.616 60.7658 63.224C60.4352 63.832 59.9658 64.312 59.3578 64.664C58.7605 65.016 58.0672 65.192 57.2778 65.192ZM65.4877 59.304C64.9757 59.304 64.5117 59.192 64.0957 58.968C63.6797 58.7333 63.349 58.4027 63.1037 57.976C62.8584 57.5493 62.7357 57.0427 62.7357 56.456C62.7357 55.8693 62.8584 55.3627 63.1037 54.936C63.349 54.5093 63.6797 54.184 64.0957 53.96C64.5117 53.7253 64.981 53.608 65.5037 53.608C66.0157 53.608 66.4744 53.7253 66.8797 53.96C67.2957 54.184 67.6264 54.5093 67.8717 54.936C68.117 55.3627 68.2397 55.8693 68.2397 56.456C68.2397 57.0427 68.117 57.5493 67.8717 57.976C67.6264 58.4027 67.2957 58.7333 66.8797 58.968C66.4637 59.192 65.9997 59.304 65.4877 59.304ZM64.8797 65L71.1997 53.8H73.1997L66.8797 65H64.8797ZM65.4877 57.88C65.797 57.88 66.0637 57.7627 66.2877 57.528C66.5117 57.2827 66.6237 56.9253 66.6237 56.456C66.6237 55.9867 66.5117 55.6293 66.2877 55.384C66.0744 55.1387 65.8077 55.016 65.4877 55.016C65.1677 55.016 64.8957 55.1387 64.6717 55.384C64.4584 55.6293 64.3517 55.9867 64.3517 56.456C64.3517 56.9253 64.4584 57.2827 64.6717 57.528C64.8957 57.7627 65.1677 57.88 65.4877 57.88ZM72.6557 65.192C72.1437 65.192 71.6797 65.08 71.2637 64.856C70.8477 64.6213 70.517 64.2907 70.2717 63.864C70.0264 63.4373 69.9037 62.9307 69.9037 62.344C69.9037 61.7573 70.0264 61.256 70.2717 60.84C70.517 60.4133 70.8477 60.088 71.2637 59.864C71.6797 59.6293 72.149 59.512 72.6717 59.512C73.1837 59.512 73.6424 59.6293 74.0477 59.864C74.4637 60.088 74.7944 60.4133 75.0397 60.84C75.285 61.256 75.4077 61.7573 75.4077 62.344C75.4077 62.9307 75.285 63.4373 75.0397 63.864C74.7944 64.2907 74.4637 64.6213 74.0477 64.856C73.6424 65.08 73.1784 65.192 72.6557 65.192ZM72.6557 63.768C72.9757 63.768 73.2424 63.6507 73.4557 63.416C73.6797 63.1707 73.7917 62.8133 73.7917 62.344C73.7917 61.8747 73.6797 61.5173 73.4557 61.272C73.2424 61.0267 72.9757 60.904 72.6557 60.904C72.3357 60.904 72.0637 61.0267 71.8397 61.272C71.6264 61.5173 71.5197 61.8747 71.5197 62.344C71.5197 62.8133 71.6264 63.1707 71.8397 63.416C72.0637 63.6507 72.3357 63.768 72.6557 63.768Z" fill="#4352FF"/>
</svg>
