<svg width="119" height="119" viewBox="0 0 119 119" fill="none" xmlns="http://www.w3.org/2000/svg">
<path d="M59.0162 5C59.0162 2.23858 61.2588 -0.0220067 64.0103 0.211662C73.1445 0.987364 81.9969 3.88296 89.8521 8.69662C99.1322 14.3835 106.659 22.5258 111.6 32.2234C116.541 41.9211 118.704 52.7962 117.851 63.6466C116.997 74.497 113.159 84.8998 106.761 93.7051C100.364 102.51 91.6562 109.375 81.6008 113.54C71.5453 117.705 60.534 119.008 49.7841 117.306C39.0342 115.603 28.9645 110.961 20.6883 103.893C13.6828 97.9093 8.19337 90.3849 4.63303 81.9375C3.56053 79.3929 5.01747 76.5615 7.64374 75.7082L26.1971 69.6798C28.8233 68.8265 31.608 70.292 32.892 72.7368C34.6297 76.0454 36.9874 79.0076 39.8522 81.4544C43.9903 84.9886 49.0252 87.3097 54.4001 88.1611C59.7751 89.0124 65.2808 88.3607 70.3085 86.2782C75.3362 84.1956 79.6901 80.7633 82.8888 76.3607C86.0875 71.958 88.0064 66.7566 88.4334 61.3314C88.8604 55.9062 87.7788 50.4686 85.3082 45.6198C82.8376 40.771 79.0742 36.6998 74.4342 33.8564C71.2219 31.8879 67.6761 30.561 63.9924 29.9307C61.2705 29.465 59.0162 27.2695 59.0162 24.5081L59.0162 5Z" fill="#4352FF"/>
<path opacity="0.5" d="M6.60726 45.9375C3.928 45.2689 2.2777 42.5456 3.17063 39.9325C6.4844 30.235 12.2776 21.538 20.0114 14.727C27.7452 7.91598 37.1045 3.26834 47.1431 1.20666C49.848 0.651129 52.341 2.63236 52.6656 5.37464L54.9592 24.7475C55.2838 27.4897 53.3033 29.935 50.655 30.7175C46.5568 31.9284 42.7506 34.0211 39.5138 36.8716C36.277 39.7222 33.7201 43.2335 32.001 47.1458C30.8901 49.6739 28.2142 51.3295 25.5349 50.6609L6.60726 45.9375Z" fill="#1C1F45"/>
<path opacity="0.8" d="M6.46751 71.5186C3.78107 72.1577 1.06283 70.4993 0.653312 67.7684C0.0472848 63.7271 -0.137361 59.6337 0.102356 55.5543C0.264344 52.7976 2.82223 50.9012 5.5553 51.2959L24.8631 54.0841C27.5962 54.4788 29.447 57.0237 29.5188 59.7842C29.5286 60.1588 29.5455 60.5332 29.5695 60.9072C29.7465 63.663 28.1323 66.3642 25.4459 67.0033L6.46751 71.5186Z" fill="#1C1F45"/>
<path d="M43.728 65L47.952 55.544H42.432V53.8H50.064V55.256L45.856 65H43.728ZM56.1175 65.192C55.0828 65.192 54.1975 64.952 53.4615 64.472C52.7255 63.9813 52.1548 63.304 51.7495 62.44C51.3548 61.5653 51.1575 60.552 51.1575 59.4C51.1575 58.2587 51.3548 57.2507 51.7495 56.376C52.1548 55.5013 52.7255 54.824 53.4615 54.344C54.1975 53.8533 55.0828 53.608 56.1175 53.608C57.1522 53.608 58.0375 53.8533 58.7735 54.344C59.5095 54.824 60.0748 55.5013 60.4695 56.376C60.8748 57.2507 61.0775 58.2587 61.0775 59.4C61.0775 60.552 60.8748 61.5653 60.4695 62.44C60.0748 63.304 59.5095 63.9813 58.7735 64.472C58.0375 64.952 57.1522 65.192 56.1175 65.192ZM56.1175 63.352C56.9602 63.352 57.6482 63 58.1815 62.296C58.7148 61.592 58.9815 60.6267 58.9815 59.4C58.9815 58.1733 58.7148 57.208 58.1815 56.504C57.6482 55.8 56.9602 55.448 56.1175 55.448C55.2642 55.448 54.5708 55.8 54.0375 56.504C53.5148 57.208 53.2535 58.1733 53.2535 59.4C53.2535 60.6267 53.5148 61.592 54.0375 62.296C54.5708 63 55.2642 63.352 56.1175 63.352ZM65.1889 59.304C64.6769 59.304 64.2129 59.192 63.7969 58.968C63.3809 58.7333 63.0502 58.4027 62.8049 57.976C62.5595 57.5493 62.4369 57.0427 62.4369 56.456C62.4369 55.8693 62.5595 55.3627 62.8049 54.936C63.0502 54.5093 63.3809 54.184 63.7969 53.96C64.2129 53.7253 64.6822 53.608 65.2049 53.608C65.7169 53.608 66.1755 53.7253 66.5809 53.96C66.9969 54.184 67.3275 54.5093 67.5729 54.936C67.8182 55.3627 67.9409 55.8693 67.9409 56.456C67.9409 57.0427 67.8182 57.5493 67.5729 57.976C67.3275 58.4027 66.9969 58.7333 66.5809 58.968C66.1649 59.192 65.7009 59.304 65.1889 59.304ZM64.5809 65L70.9009 53.8H72.9009L66.5809 65H64.5809ZM65.1889 57.88C65.4982 57.88 65.7649 57.7627 65.9889 57.528C66.2129 57.2827 66.3249 56.9253 66.3249 56.456C66.3249 55.9867 66.2129 55.6293 65.9889 55.384C65.7755 55.1387 65.5089 55.016 65.1889 55.016C64.8689 55.016 64.5969 55.1387 64.3729 55.384C64.1595 55.6293 64.0529 55.9867 64.0529 56.456C64.0529 56.9253 64.1595 57.2827 64.3729 57.528C64.5969 57.7627 64.8689 57.88 65.1889 57.88ZM72.3569 65.192C71.8449 65.192 71.3809 65.08 70.9649 64.856C70.5489 64.6213 70.2182 64.2907 69.9729 63.864C69.7275 63.4373 69.6049 62.9307 69.6049 62.344C69.6049 61.7573 69.7275 61.256 69.9729 60.84C70.2182 60.4133 70.5489 60.088 70.9649 59.864C71.3809 59.6293 71.8502 59.512 72.3729 59.512C72.8849 59.512 73.3435 59.6293 73.7489 59.864C74.1649 60.088 74.4955 60.4133 74.7409 60.84C74.9862 61.256 75.1089 61.7573 75.1089 62.344C75.1089 62.9307 74.9862 63.4373 74.7409 63.864C74.4955 64.2907 74.1649 64.6213 73.7489 64.856C73.3435 65.08 72.8795 65.192 72.3569 65.192ZM72.3569 63.768C72.6769 63.768 72.9435 63.6507 73.1569 63.416C73.3809 63.1707 73.4929 62.8133 73.4929 62.344C73.4929 61.8747 73.3809 61.5173 73.1569 61.272C72.9435 61.0267 72.6769 60.904 72.3569 60.904C72.0369 60.904 71.7649 61.0267 71.5409 61.272C71.3275 61.5173 71.2209 61.8747 71.2209 62.344C71.2209 62.8133 71.3275 63.1707 71.5409 63.416C71.7649 63.6507 72.0369 63.768 72.3569 63.768Z" fill="#4352FF"/>
</svg>
