<svg width="119" height="119" viewBox="0 0 119 119" fill="none" xmlns="http://www.w3.org/2000/svg">
<path d="M62.1654 5.09188C62.3264 2.33515 64.6971 0.209162 67.4303 0.602846C77.2755 2.02091 86.6317 5.90955 94.6089 11.941C103.92 18.9806 110.934 28.623 114.764 39.6489C118.595 50.6748 119.069 62.5889 116.129 73.8847C113.188 85.1805 106.964 95.3506 98.2431 103.109C89.5224 110.867 78.6969 115.865 67.1356 117.471C55.5743 119.077 43.7964 117.219 33.2914 112.131C22.7863 107.043 14.0259 98.954 8.11796 88.8873C3.05606 80.2622 0.282942 70.5169 0.0205161 60.5736C-0.0523385 57.8132 2.33515 55.7061 5.09188 55.8671L24.5668 57.0044C27.3235 57.1654 29.3839 59.5439 29.6901 62.2883C30.1474 66.3868 31.461 70.3632 33.5671 73.9518C36.5211 78.9851 40.9013 83.0295 46.1538 85.5735C51.4063 88.1174 57.2953 89.0467 63.0759 88.2438C68.8566 87.4408 74.2693 84.9418 78.6297 81.0626C82.99 77.1834 86.1022 72.0984 87.5725 66.4505C89.0429 60.8026 88.8054 54.8455 86.8901 49.3326C84.9749 43.8196 81.4679 38.9984 76.8126 35.4786C73.4935 32.9692 69.6971 31.2016 65.6797 30.2703C62.9896 29.6467 60.8671 27.3235 61.0281 24.5668L62.1654 5.09188Z" fill="#4352FF"/>
<path opacity="0.5" d="M11.3227 33.6572C8.88454 32.3608 7.94139 29.3194 9.43947 26.9996C14.2436 19.5605 20.6732 13.2789 28.2682 8.6429C35.8633 4.00686 44.3892 1.15962 53.2016 0.287145C55.9496 0.0150805 58.2235 2.24413 58.2621 5.00529L58.5344 24.5115C58.573 27.2727 56.3496 29.4994 53.6344 30.003C50.112 30.6565 46.7239 31.9485 43.6422 33.8296C40.5606 35.7106 37.8627 38.1335 35.6714 40.9677C33.9824 43.1524 30.9856 44.1121 28.5474 42.8157L11.3227 33.6572Z" fill="#1C1F45"/>
<path opacity="0.8" d="M5.52641 51.4986C2.79186 51.1143 0.86539 48.579 1.47973 45.8868C1.83813 44.3162 2.2607 42.7608 2.74637 41.2248C3.57885 38.5918 6.52341 37.38 9.07647 38.4323L28.3071 46.3585C30.2005 47.1389 31.0781 49.3033 30.5411 51.2795V51.2795C30.0042 53.2558 28.152 54.6785 26.124 54.3934L5.52641 51.4986Z" fill="#1C1F45"/>
<path d="M44.728 65L48.952 55.544H43.432V53.8H51.064V55.256L46.856 65H44.728ZM56.2603 65.192C55.4389 65.192 54.7296 65.048 54.1323 64.76C53.5456 64.472 53.0816 64.0773 52.7403 63.576C52.4096 63.064 52.2176 62.488 52.1643 61.848H54.1643C54.2603 62.3067 54.4949 62.6907 54.8683 63C55.2416 63.2987 55.7056 63.448 56.2603 63.448C56.8576 63.448 57.3429 63.2293 57.7163 62.792C58.1003 62.3547 58.2923 61.8107 58.2923 61.16C58.2923 60.488 58.1003 59.9547 57.7163 59.56C57.3429 59.1653 56.8683 58.968 56.2923 58.968C55.8123 58.968 55.3963 59.0853 55.0443 59.32C54.6923 59.5547 54.4416 59.848 54.2923 60.2H52.3243L53.2843 53.8H59.4923V55.592H54.8203L54.3083 58.184C54.5429 57.928 54.8629 57.72 55.2682 57.56C55.6736 57.3893 56.1269 57.304 56.6283 57.304C57.4283 57.304 58.0949 57.4853 58.6283 57.848C59.1616 58.2 59.5669 58.6693 59.8443 59.256C60.1216 59.832 60.2603 60.4613 60.2603 61.144C60.2603 61.9227 60.0896 62.616 59.7483 63.224C59.4176 63.832 58.9483 64.312 58.3403 64.664C57.7429 65.016 57.0496 65.192 56.2603 65.192ZM64.4701 59.304C63.9581 59.304 63.4941 59.192 63.0781 58.968C62.6621 58.7333 62.3315 58.4027 62.0861 57.976C61.8408 57.5493 61.7181 57.0427 61.7181 56.456C61.7181 55.8693 61.8408 55.3627 62.0861 54.936C62.3315 54.5093 62.6621 54.184 63.0781 53.96C63.4941 53.7253 63.9635 53.608 64.4861 53.608C64.9981 53.608 65.4568 53.7253 65.8621 53.96C66.2781 54.184 66.6088 54.5093 66.8541 54.936C67.0995 55.3627 67.2221 55.8693 67.2221 56.456C67.2221 57.0427 67.0995 57.5493 66.8541 57.976C66.6088 58.4027 66.2781 58.7333 65.8621 58.968C65.4461 59.192 64.9821 59.304 64.4701 59.304ZM63.8621 65L70.1821 53.8H72.1821L65.8621 65H63.8621ZM64.4701 57.88C64.7795 57.88 65.0461 57.7627 65.2701 57.528C65.4941 57.2827 65.6061 56.9253 65.6061 56.456C65.6061 55.9867 65.4941 55.6293 65.2701 55.384C65.0568 55.1387 64.7901 55.016 64.4701 55.016C64.1501 55.016 63.8781 55.1387 63.6541 55.384C63.4408 55.6293 63.3341 55.9867 63.3341 56.456C63.3341 56.9253 63.4408 57.2827 63.6541 57.528C63.8781 57.7627 64.1501 57.88 64.4701 57.88ZM71.6381 65.192C71.1261 65.192 70.6621 65.08 70.2461 64.856C69.8301 64.6213 69.4995 64.2907 69.2541 63.864C69.0088 63.4373 68.8861 62.9307 68.8861 62.344C68.8861 61.7573 69.0088 61.256 69.2541 60.84C69.4995 60.4133 69.8301 60.088 70.2461 59.864C70.6621 59.6293 71.1315 59.512 71.6541 59.512C72.1661 59.512 72.6248 59.6293 73.0301 59.864C73.4461 60.088 73.7768 60.4133 74.0221 60.84C74.2675 61.256 74.3901 61.7573 74.3901 62.344C74.3901 62.9307 74.2675 63.4373 74.0221 63.864C73.7768 64.2907 73.4461 64.6213 73.0301 64.856C72.6248 65.08 72.1608 65.192 71.6381 65.192ZM71.6381 63.768C71.9581 63.768 72.2248 63.6507 72.4381 63.416C72.6621 63.1707 72.7741 62.8133 72.7741 62.344C72.7741 61.8747 72.6621 61.5173 72.4381 61.272C72.2248 61.0267 71.9581 60.904 71.6381 60.904C71.3181 60.904 71.0461 61.0267 70.8221 61.272C70.6088 61.5173 70.5021 61.8747 70.5021 62.344C70.5021 62.8133 70.6088 63.1707 70.8221 63.416C71.0461 63.6507 71.3181 63.768 71.6381 63.768Z" fill="#4352FF"/>
</svg>
